G04*
G04 #@! TF.GenerationSoftware,Altium Limited,Altium Designer,21.2.2 (38)*
G04*
G04 Layer_Color=32768*
%FSLAX25Y25*%
%MOIN*%
G70*
G04*
G04 #@! TF.SameCoordinates,D0C09C63-79EA-4D83-9DA0-2B2549F26A19*
G04*
G04*
G04 #@! TF.FilePolarity,Positive*
G04*
G01*
G75*
%ADD15C,0.00004*%
%ADD59C,0.00394*%
%ADD60C,0.00197*%
D15*
X157500Y438500D02*
X568500D01*
Y204000D02*
Y438500D01*
X157500Y204000D02*
X568500D01*
X157500D02*
Y438500D01*
D59*
X524000Y312032D02*
Y315968D01*
X522031Y314000D02*
X525969D01*
X518500Y259531D02*
Y263469D01*
X516532Y261500D02*
X520469D01*
X260504Y395500D02*
X264441D01*
X262472Y393531D02*
Y397468D01*
X219032Y414000D02*
X222969D01*
X221000Y412032D02*
Y415969D01*
X242000Y316032D02*
Y319969D01*
X240032Y318000D02*
X243969D01*
X389921Y408000D02*
X393858D01*
X391890Y406032D02*
Y409969D01*
X229031Y274110D02*
X232968D01*
X231000Y272142D02*
Y276079D01*
X285000Y310531D02*
Y314469D01*
X283032Y312500D02*
X286968D01*
X180532Y320500D02*
X184468D01*
X182500Y318531D02*
Y322468D01*
X285000Y273031D02*
Y276969D01*
X283032Y275000D02*
X286968D01*
X181532Y274110D02*
X185468D01*
X183500Y272142D02*
Y276079D01*
X366500Y308032D02*
Y311968D01*
X364531Y310000D02*
X368468D01*
X521531Y409500D02*
X525468D01*
X523500Y407531D02*
Y411469D01*
X543032Y261028D02*
X546969D01*
X545000Y259059D02*
Y262996D01*
X479500Y391032D02*
Y394969D01*
X477531Y393000D02*
X481468D01*
X465531Y261500D02*
X469468D01*
X467500Y259531D02*
Y263469D01*
X492031Y261000D02*
X495968D01*
X494000Y259032D02*
Y262968D01*
D60*
X490929Y322071D02*
X557071D01*
X490929Y305929D02*
X557071D01*
Y322071D01*
X490929Y305929D02*
Y322071D01*
X510429Y294571D02*
X526571D01*
X510429Y228429D02*
X526571D01*
X510429D02*
Y294571D01*
X526571Y228429D02*
Y294571D01*
X229402Y387429D02*
Y403571D01*
X295543Y387429D02*
Y403571D01*
X229402Y387429D02*
X295543D01*
X229402Y403571D02*
X295543D01*
X187929Y405929D02*
Y422071D01*
X254071Y405929D02*
Y422071D01*
X187929Y405929D02*
X254071D01*
X187929Y422071D02*
X254071D01*
X423528Y252406D02*
X427465D01*
X425496Y250437D02*
Y254374D01*
X439906Y208508D02*
Y296303D01*
X415811Y208508D02*
X439906D01*
X415811D02*
Y296303D01*
X439906D01*
X279783Y234528D02*
Y238465D01*
X277815Y236496D02*
X281752D01*
X247697Y226811D02*
Y250905D01*
Y226811D02*
X311870D01*
Y250905D01*
X247697D02*
X311870D01*
X375748Y424142D02*
X408032D01*
X375748Y391858D02*
Y424142D01*
X408032Y391858D02*
Y424142D01*
X375748Y391858D02*
X408032D01*
X214858Y257968D02*
Y290252D01*
Y257968D02*
X247142D01*
X214858Y290252D02*
X247142D01*
Y257968D02*
Y290252D01*
X279606Y304547D02*
Y320453D01*
Y304547D02*
X290394D01*
Y320453D01*
X279606D02*
X290394D01*
X172106Y308689D02*
X192893D01*
X172106Y332311D02*
X192893D01*
Y308689D02*
Y332311D01*
X172106Y308689D02*
Y332311D01*
X279606Y267047D02*
Y282953D01*
Y267047D02*
X290394D01*
Y282953D01*
X279606D02*
X290394D01*
X167358Y257968D02*
Y290252D01*
Y257968D02*
X199642D01*
X167358Y290252D02*
X199642D01*
Y257968D02*
Y290252D01*
X513107Y421311D02*
X533894D01*
X513107Y397689D02*
X533894D01*
X513107D02*
Y421311D01*
X533894Y397689D02*
Y421311D01*
X553071Y227957D02*
Y294098D01*
X536929Y227957D02*
Y294098D01*
Y227957D02*
X553071D01*
X536929Y294098D02*
X553071D01*
X465319Y384003D02*
Y399023D01*
X493181D01*
Y384003D02*
Y399023D01*
X465319Y384003D02*
X493181D01*
X171264Y347094D02*
X329925D01*
X171264D02*
Y371189D01*
X329925D01*
Y347094D02*
Y371189D01*
X248626Y361504D02*
X252563D01*
X250595Y359535D02*
Y363472D01*
X419095Y305819D02*
X443189D01*
Y405425D01*
X419095D02*
X443189D01*
X419095Y305819D02*
Y405425D01*
X433504Y353653D02*
Y357590D01*
X431535Y355622D02*
X435472D01*
X475571Y228429D02*
Y294571D01*
X459429Y228429D02*
Y294571D01*
Y228429D02*
X475571D01*
X459429Y294571D02*
X475571D01*
X502071Y227929D02*
Y294071D01*
X485929Y227929D02*
Y294071D01*
Y227929D02*
X502071D01*
X485929Y294071D02*
X502071D01*
M02*
