G04*
G04 #@! TF.GenerationSoftware,Altium Limited,Altium Designer,21.2.2 (38)*
G04*
G04 Layer_Physical_Order=2*
G04 Layer_Color=16711680*
%FSLAX25Y25*%
%MOIN*%
G70*
G04*
G04 #@! TF.SameCoordinates,D0C09C63-79EA-4D83-9DA0-2B2549F26A19*
G04*
G04*
G04 #@! TF.FilePolarity,Positive*
G04*
G01*
G75*
%ADD15C,0.00004*%
%ADD16C,0.05709*%
%ADD17R,0.05709X0.05709*%
%ADD34C,0.04724*%
%ADD35R,0.04724X0.04724*%
%ADD38C,0.06063*%
%ADD39R,0.06063X0.06063*%
%ADD40C,0.03543*%
%ADD41R,0.06299X0.06299*%
%ADD42C,0.06299*%
%ADD43R,0.06299X0.06299*%
%ADD44R,0.06693X0.06693*%
%ADD45C,0.06693*%
%ADD46C,0.05984*%
%ADD47C,0.05000*%
%ADD48R,0.05984X0.05984*%
%ADD49R,0.05984X0.05984*%
%ADD50C,0.06000*%
%ADD51C,0.05512*%
%ADD52C,0.05118*%
%ADD53R,0.05118X0.05118*%
%ADD54C,0.05118*%
%ADD55C,0.05906*%
%ADD56R,0.05906X0.05906*%
%ADD57C,0.06102*%
%ADD58R,0.06102X0.06102*%
D15*
X157500Y438500D02*
X568500D01*
Y204000D02*
Y438500D01*
X157500Y204000D02*
X568500D01*
X157500D02*
Y438500D01*
D16*
X526500Y356000D02*
D03*
D17*
X506815D02*
D03*
D34*
X467000Y365012D02*
D03*
D35*
Y334988D02*
D03*
D38*
X333295Y391142D02*
D03*
X307705D02*
D03*
X333295Y408858D02*
D03*
D39*
X307705D02*
D03*
D40*
X479500Y356055D02*
Y393000D01*
Y356055D02*
X545000Y290555D01*
X455500Y250076D02*
Y287402D01*
X426500Y234689D02*
X434427Y242616D01*
X448040D01*
X455500Y250076D01*
X407745Y384037D02*
X430396Y361386D01*
X449247D01*
X472134Y338498D01*
Y304035D02*
Y338498D01*
X407745Y384037D02*
Y385255D01*
X385000Y408000D02*
X407745Y385255D01*
X455500Y287402D02*
X472134Y304035D01*
X442807Y322345D02*
Y336269D01*
X426339Y305876D02*
X442807Y322345D01*
X432500Y320189D02*
Y320409D01*
X434887Y337764D02*
X438264Y334387D01*
X435732Y343344D02*
X442807Y336269D01*
X438264Y326173D02*
Y334387D01*
X432500Y320409D02*
X438264Y326173D01*
X429073Y337764D02*
X434887D01*
X397905Y306596D02*
X429073Y337764D01*
X553527Y267000D02*
Y314000D01*
X518500Y231972D02*
X553527Y267000D01*
X369500Y317000D02*
X381500Y305000D01*
X364500Y317000D02*
X369500D01*
X352139Y315000D02*
X353320Y313819D01*
X353681D02*
X375308Y292192D01*
X378243D01*
X381051Y295000D01*
X381500D01*
X351500Y315000D02*
X352139D01*
X353320Y313819D02*
X353681D01*
X187500Y320500D02*
X210976D01*
X214594Y324118D01*
X236494D01*
X242000Y318613D01*
Y318000D02*
Y318613D01*
X269829Y317500D02*
X285000D01*
X264211Y311882D02*
X269829Y317500D01*
X248131Y311882D02*
X264211D01*
X242013Y318000D02*
X248131Y311882D01*
X242000Y318000D02*
X242013D01*
X238925Y358113D02*
X272038Y325000D01*
X351500D01*
X183500Y281000D02*
X195000D01*
X232000Y318000D01*
X273878Y237500D02*
Y237811D01*
X231000Y280689D02*
X273878Y237811D01*
X231000Y280689D02*
Y281000D01*
X325000Y265500D02*
X325250Y265250D01*
X351250D01*
X255500Y289000D02*
X279831Y264669D01*
X244689Y360500D02*
X254996Y350193D01*
X346054D02*
X350861Y355000D01*
X351500D01*
X254996Y350193D02*
X346054D01*
X279831Y264669D02*
X310911D01*
X321242Y275000D01*
X351500D01*
X285000Y280000D02*
X296272Y291272D01*
X306630D01*
X242302Y366264D02*
X250516D01*
X238925Y362887D02*
X242302Y366264D01*
X351250Y265250D02*
X351500Y265000D01*
Y305000D02*
X351636D01*
X320359D02*
X351500D01*
X306630Y291272D02*
X320359Y305000D01*
X349258Y296602D02*
X350861Y295000D01*
X319500Y296602D02*
X349258D01*
X350861Y295000D02*
X351500D01*
X381500D02*
X390500Y286000D01*
Y274728D02*
Y286000D01*
X381500Y295000D02*
X393362Y306862D01*
X365143Y245000D02*
X370867Y239276D01*
X351500Y245000D02*
X365143D01*
X383871Y239276D02*
X406992Y262396D01*
X370867Y239276D02*
X383871D01*
X319500Y284398D02*
X319801Y284699D01*
X351199D02*
X351500Y285000D01*
X319801Y284699D02*
X351199D01*
X394000Y327500D02*
Y350000D01*
X381500Y315000D02*
X394000Y327500D01*
X432189Y355311D02*
X432500Y355622D01*
X381811Y355311D02*
X432189D01*
X381500Y355000D02*
X381811Y355311D01*
X415000Y363000D02*
X417681D01*
X380202Y413528D02*
X447804D01*
X335728Y369053D02*
X380202Y413528D01*
X335971Y360007D02*
Y365266D01*
X335728Y365510D02*
X335971Y365266D01*
Y360007D02*
X336250Y359728D01*
X335728Y365510D02*
Y369053D01*
X447804Y413528D02*
X451832Y409500D01*
X397276Y380724D02*
X415000Y363000D01*
X379129Y380724D02*
X397276D01*
X365540Y367136D02*
X379129Y380724D01*
X451832Y409500D02*
X518500D01*
X351500Y345000D02*
X365540Y359040D01*
Y367136D01*
X435927Y349575D02*
X450513Y334988D01*
X467000D01*
X426736Y341852D02*
Y346199D01*
X393362Y306862D02*
Y308478D01*
X426736Y341852D01*
Y346199D02*
X430113Y349575D01*
X397905Y271405D02*
Y306596D01*
X402449Y304714D02*
X429268Y331533D01*
X402449Y265949D02*
Y304714D01*
X381500Y255000D02*
X397905Y271405D01*
X430113Y349575D02*
X435927D01*
X423460Y305876D02*
X426339D01*
X432500Y343811D02*
X432967Y343344D01*
X406992Y289408D02*
X423460Y305876D01*
X432967Y343344D02*
X435732D01*
X406992Y262396D02*
Y289408D01*
X381500Y245000D02*
X402449Y265949D01*
X429268Y331533D02*
X432033D01*
X432500Y332000D01*
X232945Y395500D02*
X249515Y378930D01*
X303964Y360500D02*
X309728Y354736D01*
X321319Y358113D02*
Y362887D01*
X305276Y378930D02*
X321319Y362887D01*
X249515Y378930D02*
X305276D01*
X303744Y360500D02*
X303964D01*
X309728Y354736D02*
X317943D01*
X321319Y358113D01*
X240420Y370807D02*
X305248D01*
X315555Y360500D01*
X233345Y363733D02*
X240420Y370807D01*
X250516Y366264D02*
X256280Y360500D01*
X232878D02*
X233345Y360967D01*
X238925Y358113D02*
Y362887D01*
X233345Y360967D02*
Y363733D01*
X256280Y360500D02*
X256500D01*
X232658D02*
X232878D01*
X226894Y354736D02*
X232658Y360500D01*
X191398Y354736D02*
X226894D01*
X185634Y360500D02*
X191398Y354736D01*
X232695Y395500D02*
X232945D01*
X197695Y360500D02*
X232695Y395500D01*
X197445Y360500D02*
X197695D01*
D41*
X553527Y314000D02*
D03*
X292000Y395500D02*
D03*
X250528Y414000D02*
D03*
D42*
X494472Y314000D02*
D03*
X518500Y291028D02*
D03*
X232945Y395500D02*
D03*
X191472Y414000D02*
D03*
X545000Y290555D02*
D03*
X467500Y291028D02*
D03*
X494000Y290528D02*
D03*
D43*
X518500Y231972D02*
D03*
X545000Y231500D02*
D03*
X467500Y231972D02*
D03*
X494000Y231472D02*
D03*
D44*
X232000Y318000D02*
D03*
X187500Y320500D02*
D03*
X518500Y409500D02*
D03*
D45*
X242000Y318000D02*
D03*
X252000D02*
D03*
X177500Y320500D02*
D03*
X528500Y409500D02*
D03*
D46*
X426500Y258311D02*
D03*
Y234689D02*
D03*
Y246500D02*
D03*
Y270122D02*
D03*
Y281933D02*
D03*
X262067Y237500D02*
D03*
X273878D02*
D03*
X285689D02*
D03*
X315555Y360500D02*
D03*
X303744D02*
D03*
X280122D02*
D03*
X256500D02*
D03*
X244689D02*
D03*
X221067D02*
D03*
X197445D02*
D03*
X209256D02*
D03*
X232878D02*
D03*
X268311D02*
D03*
X291933D02*
D03*
X432500Y343811D02*
D03*
Y367433D02*
D03*
Y379244D02*
D03*
Y355622D02*
D03*
Y332000D02*
D03*
Y320189D02*
D03*
D47*
X418784Y211067D02*
D03*
Y293744D02*
D03*
X250256Y229784D02*
D03*
X309311D02*
D03*
X173823Y368216D02*
D03*
X327366D02*
D03*
X440216Y308378D02*
D03*
Y402866D02*
D03*
X363000Y317500D02*
D03*
X325000Y265500D02*
D03*
X256000Y289500D02*
D03*
X390500Y274728D02*
D03*
X394000Y350000D02*
D03*
X417681Y363000D02*
D03*
X336250Y359728D02*
D03*
D48*
X426500Y222878D02*
D03*
X432500Y391055D02*
D03*
D49*
X297500Y237500D02*
D03*
X185634Y360500D02*
D03*
D50*
X174000Y226000D02*
D03*
X556500Y217500D02*
D03*
X551500Y425500D02*
D03*
X172500Y422500D02*
D03*
D51*
X385000Y408000D02*
D03*
X398780D02*
D03*
X231000Y267220D02*
D03*
Y281000D02*
D03*
X183500Y267220D02*
D03*
Y281000D02*
D03*
D52*
X319500Y284398D02*
D03*
Y296602D02*
D03*
D53*
X285000Y307500D02*
D03*
Y270000D02*
D03*
D54*
Y317500D02*
D03*
Y280000D02*
D03*
D55*
X381500Y245000D02*
D03*
Y255000D02*
D03*
Y265000D02*
D03*
Y275000D02*
D03*
Y285000D02*
D03*
Y295000D02*
D03*
Y305000D02*
D03*
Y315000D02*
D03*
Y325000D02*
D03*
Y335000D02*
D03*
Y345000D02*
D03*
Y355000D02*
D03*
Y365000D02*
D03*
Y375000D02*
D03*
X351500Y245000D02*
D03*
Y255000D02*
D03*
Y265000D02*
D03*
Y275000D02*
D03*
Y285000D02*
D03*
Y295000D02*
D03*
Y305000D02*
D03*
Y315000D02*
D03*
Y325000D02*
D03*
Y335000D02*
D03*
Y345000D02*
D03*
Y355000D02*
D03*
Y365000D02*
D03*
D56*
Y375000D02*
D03*
D57*
X469264Y393000D02*
D03*
X479500D02*
D03*
D58*
X489736D02*
D03*
M02*
