G04*
G04 #@! TF.GenerationSoftware,Altium Limited,Altium Designer,21.2.2 (38)*
G04*
G04 Layer_Color=32768*
%FSLAX25Y25*%
%MOIN*%
G70*
G04*
G04 #@! TF.SameCoordinates,D0C09C63-79EA-4D83-9DA0-2B2549F26A19*
G04*
G04*
G04 #@! TF.FilePolarity,Positive*
G04*
G01*
G75*
%ADD12C,0.00787*%
%ADD15C,0.00004*%
D12*
X484768Y356000D02*
X484784Y354998D01*
X484831Y353998D01*
X484909Y352999D01*
X485019Y352003D01*
X485160Y351011D01*
X485333Y350024D01*
X485536Y349043D01*
X485770Y348069D01*
X486034Y347103D01*
X486329Y346146D01*
X486653Y345198D01*
X487007Y344261D01*
X487391Y343335D01*
X487803Y342422D01*
X488243Y341522D01*
X488712Y340637D01*
X489209Y339767D01*
X489732Y338913D01*
X490282Y338075D01*
X490858Y337256D01*
X491460Y336455D01*
X492086Y335673D01*
X492737Y334911D01*
X493411Y334170D01*
X494108Y333451D01*
X494828Y332753D01*
X495568Y332079D01*
X496330Y331429D01*
X497112Y330802D01*
X497913Y330201D01*
X498733Y329625D01*
X499570Y329075D01*
X500424Y328551D01*
X501295Y328055D01*
X502180Y327586D01*
X503080Y327145D01*
X503993Y326733D01*
X504918Y326350D01*
X505855Y325995D01*
X506803Y325671D01*
X507761Y325377D01*
X508727Y325112D01*
X509701Y324878D01*
X510682Y324675D01*
X511669Y324503D01*
X512661Y324362D01*
X513656Y324252D01*
X514655Y324173D01*
X515656Y324126D01*
X516657Y324110D01*
X517659Y324126D01*
X518660Y324173D01*
X519659Y324252D01*
X520654Y324362D01*
X521646Y324503D01*
X522633Y324675D01*
X523614Y324878D01*
X524588Y325112D01*
X525554Y325377D01*
X526512Y325671D01*
X527460Y325995D01*
X528397Y326350D01*
X529322Y326733D01*
X530235Y327145D01*
X531135Y327586D01*
X532020Y328055D01*
X532891Y328551D01*
X533745Y329075D01*
X534582Y329625D01*
X535402Y330201D01*
X536203Y330802D01*
X536985Y331428D01*
X537746Y332079D01*
X538487Y332753D01*
X539207Y333450D01*
X539904Y334170D01*
X540578Y334911D01*
X541229Y335673D01*
X541855Y336454D01*
X542457Y337256D01*
X543033Y338075D01*
X543583Y338912D01*
X544106Y339767D01*
X544603Y340637D01*
X545071Y341522D01*
X545512Y342422D01*
X545924Y343335D01*
X546308Y344260D01*
X546662Y345198D01*
X546986Y346145D01*
X547281Y347103D01*
X547545Y348069D01*
X547779Y349043D01*
X547982Y350024D01*
X548155Y351011D01*
X548296Y352003D01*
X548406Y352999D01*
X548484Y353997D01*
X548531Y354998D01*
X548547Y356000D01*
Y356000D02*
X548531Y357002D01*
X548484Y358002D01*
X548406Y359001D01*
X548296Y359997D01*
X548155Y360989D01*
X547982Y361976D01*
X547779Y362957D01*
X547545Y363931D01*
X547281Y364897D01*
X546986Y365855D01*
X546662Y366802D01*
X546308Y367739D01*
X545925Y368665D01*
X545512Y369578D01*
X545072Y370478D01*
X544603Y371363D01*
X544106Y372233D01*
X543583Y373087D01*
X543033Y373925D01*
X542457Y374744D01*
X541855Y375546D01*
X541229Y376327D01*
X540578Y377089D01*
X539904Y377830D01*
X539207Y378550D01*
X538487Y379247D01*
X537747Y379921D01*
X536985Y380572D01*
X536203Y381198D01*
X535402Y381799D01*
X534582Y382375D01*
X533745Y382925D01*
X532891Y383449D01*
X532021Y383945D01*
X531135Y384414D01*
X530235Y384855D01*
X529322Y385267D01*
X528397Y385650D01*
X527460Y386004D01*
X526512Y386329D01*
X525554Y386624D01*
X524588Y386888D01*
X523614Y387122D01*
X522633Y387325D01*
X521646Y387497D01*
X520654Y387638D01*
X519659Y387748D01*
X518660Y387827D01*
X517659Y387874D01*
X516657Y387890D01*
X515656Y387874D01*
X514655Y387827D01*
X513656Y387748D01*
X512661Y387638D01*
X511669Y387497D01*
X510682Y387325D01*
X509701Y387122D01*
X508727Y386888D01*
X507760Y386624D01*
X506803Y386329D01*
X505855Y386004D01*
X504918Y385650D01*
X503993Y385267D01*
X503079Y384855D01*
X502180Y384414D01*
X501294Y383945D01*
X500424Y383449D01*
X499570Y382925D01*
X498733Y382375D01*
X497913Y381799D01*
X497112Y381198D01*
X496330Y380572D01*
X495568Y379921D01*
X494827Y379247D01*
X494108Y378549D01*
X493411Y377830D01*
X492737Y377089D01*
X492086Y376327D01*
X491460Y375545D01*
X490858Y374744D01*
X490282Y373925D01*
X489732Y373087D01*
X489209Y372233D01*
X488712Y371363D01*
X488243Y370478D01*
X487803Y369578D01*
X487391Y368665D01*
X487007Y367739D01*
X486653Y366802D01*
X486329Y365854D01*
X486034Y364897D01*
X485770Y363931D01*
X485536Y362957D01*
X485333Y361976D01*
X485160Y360989D01*
X485019Y359997D01*
X484909Y359001D01*
X484831Y358002D01*
X484783Y357002D01*
X484768Y356000D01*
X462847Y332232D02*
X471153D01*
Y367768D01*
X462847D02*
X471153D01*
X462847Y332232D02*
Y367768D01*
X304279Y387224D02*
Y412776D01*
Y387224D02*
X336720D01*
Y412776D01*
X304279D02*
X336720D01*
D15*
X157500Y438500D02*
X568500D01*
Y204000D02*
Y438500D01*
X157500Y204000D02*
X568500D01*
X157500D02*
Y438500D01*
M02*
