M48
;Layer_Color=9474304
;FILE_FORMAT=2:5
INCH,TZ
;TYPE=PLATED
T1F00S00C0.02756
T2F00S00C0.02800
T3F00S00C0.03150
T4F00S00C0.03543
T5F00S00C0.03740
T6F00S00C0.03898
T7F00S00C0.04016
T8F00S00C0.04134
T9F00S00C0.04331
T10F00S00C0.04685
T11F00S00C0.15748
;TYPE=NON_PLATED
T12F00S00C0.05000
%
T01
X319500Y284398
Y296602
X467000Y334988
Y365012
T02
X325000Y265500
X390500Y274728
X256000Y289500
X363000Y317500
X394000Y350000
X417681Y363000
X336250Y359728
T03
X285000Y270000
Y280000
Y307500
Y317500
T04
X351500Y245000
Y255000
Y265000
Y275000
Y285000
Y295000
Y305000
X381500
Y295000
Y285000
Y275000
Y265000
Y255000
Y245000
X231000Y267220
Y281000
X183500
Y267220
X351500Y315000
Y325000
Y335000
Y345000
Y355000
Y365000
Y375000
X381500
Y365000
Y355000
Y345000
Y335000
Y325000
Y315000
X385000Y408000
X398780
T05
X506815Y356000
X526500
T06
X307705Y391142
Y408858
X333295
Y391142
T07
X426500Y222878
Y234689
Y246500
Y258311
Y270122
Y281933
X297500Y237500
X285689
X273878
X262067
X256500Y360500
X244689
X232878
X221067
X209256
X197445
X185634
X268311
X280122
X291933
X303744
X315555
X432500Y355622
Y343811
Y332000
Y320189
Y367433
Y379244
Y391055
T08
X469264Y393000
X479500
X489736
T09
X494000Y231472
X518500Y231972
X545000Y231500
Y290555
X518500Y291028
X494000Y290528
X467500Y291028
Y231972
X252000Y318000
X242000
X232000
X232945Y395500
X250528Y414000
X191472
X292000Y395500
X494472Y314000
X553527
T10
X177500Y320500
X187500
X518500Y409500
X528500
T11
X556500Y217500
X174000Y226000
X172500Y422500
X551500Y425500
T12
X418784Y211067
Y293744
X440216Y308378
X309311Y229784
X250256
X173823Y368216
X327366
X440216Y402866
M30
