G04*
G04 #@! TF.GenerationSoftware,Altium Limited,Altium Designer,21.2.2 (38)*
G04*
G04 Layer_Color=65535*
%FSLAX25Y25*%
%MOIN*%
G70*
G04*
G04 #@! TF.SameCoordinates,D0C09C63-79EA-4D83-9DA0-2B2549F26A19*
G04*
G04*
G04 #@! TF.FilePolarity,Positive*
G04*
G01*
G75*
%ADD10C,0.00591*%
%ADD11C,0.00984*%
%ADD12C,0.00787*%
%ADD13C,0.02362*%
%ADD14C,0.01000*%
%ADD15C,0.00004*%
D10*
X548153Y356000D02*
X548138Y356999D01*
X548090Y357998D01*
X548011Y358994D01*
X547900Y359987D01*
X547758Y360976D01*
X547584Y361961D01*
X547380Y362939D01*
X547144Y363910D01*
X546878Y364874D01*
X546581Y365828D01*
X546254Y366772D01*
X545897Y367706D01*
X545511Y368628D01*
X545096Y369537D01*
X544652Y370432D01*
X544180Y371313D01*
X543681Y372179D01*
X543154Y373028D01*
X542600Y373860D01*
X542020Y374674D01*
X541415Y375470D01*
X540785Y376245D01*
X540130Y377001D01*
X539452Y377735D01*
X538751Y378447D01*
X538028Y379137D01*
X537283Y379803D01*
X536517Y380446D01*
X535732Y381063D01*
X534927Y381656D01*
X534104Y382223D01*
X533263Y382763D01*
X532406Y383276D01*
X531532Y383762D01*
X530644Y384220D01*
X529741Y384650D01*
X528826Y385051D01*
X527898Y385422D01*
X526959Y385764D01*
X526009Y386076D01*
X525050Y386357D01*
X524083Y386608D01*
X523108Y386828D01*
X522127Y387018D01*
X521140Y387175D01*
X520148Y387302D01*
X519153Y387397D01*
X518156Y387460D01*
X517157Y387492D01*
X516158D01*
X515159Y387460D01*
X514161Y387397D01*
X513167Y387302D01*
X512175Y387175D01*
X511188Y387018D01*
X510207Y386828D01*
X509232Y386608D01*
X508265Y386357D01*
X507306Y386076D01*
X506356Y385764D01*
X505417Y385422D01*
X504489Y385051D01*
X503574Y384650D01*
X502671Y384220D01*
X501783Y383762D01*
X500909Y383276D01*
X500052Y382763D01*
X499211Y382223D01*
X498388Y381656D01*
X497583Y381063D01*
X496798Y380446D01*
X496032Y379803D01*
X495287Y379137D01*
X494564Y378447D01*
X493863Y377735D01*
X493185Y377001D01*
X492530Y376245D01*
X491900Y375470D01*
X491295Y374674D01*
X490715Y373860D01*
X490161Y373028D01*
X489634Y372179D01*
X489135Y371313D01*
X488663Y370432D01*
X488219Y369537D01*
X487804Y368628D01*
X487418Y367706D01*
X487061Y366772D01*
X486734Y365828D01*
X486437Y364874D01*
X486171Y363910D01*
X485935Y362939D01*
X485731Y361961D01*
X485557Y360977D01*
X485415Y359987D01*
X485304Y358994D01*
X485225Y357998D01*
X485177Y356999D01*
X485161Y356000D01*
X485177Y355001D01*
X485225Y354002D01*
X485304Y353006D01*
X485415Y352013D01*
X485557Y351024D01*
X485731Y350039D01*
X485935Y349061D01*
X486171Y348090D01*
X486437Y347127D01*
X486734Y346172D01*
X487061Y345228D01*
X487418Y344294D01*
X487804Y343372D01*
X488219Y342463D01*
X488663Y341568D01*
X489135Y340687D01*
X489634Y339821D01*
X490161Y338972D01*
X490715Y338140D01*
X491295Y337326D01*
X491900Y336530D01*
X492530Y335755D01*
X493185Y334999D01*
X493863Y334265D01*
X494564Y333553D01*
X495287Y332863D01*
X496032Y332197D01*
X496797Y331555D01*
X497583Y330937D01*
X498388Y330344D01*
X499211Y329777D01*
X500052Y329237D01*
X500909Y328724D01*
X501783Y328238D01*
X502671Y327780D01*
X503573Y327350D01*
X504489Y326950D01*
X505417Y326578D01*
X506356Y326236D01*
X507305Y325924D01*
X508264Y325643D01*
X509232Y325392D01*
X510207Y325172D01*
X511188Y324983D01*
X512175Y324825D01*
X513166Y324698D01*
X514161Y324603D01*
X515159Y324540D01*
X516157Y324508D01*
X517157Y324508D01*
X518156Y324540D01*
X519153Y324603D01*
X520148Y324698D01*
X521140Y324825D01*
X522126Y324982D01*
X523108Y325171D01*
X524083Y325392D01*
X525050Y325643D01*
X526009Y325924D01*
X526959Y326236D01*
X527898Y326578D01*
X528826Y326949D01*
X529741Y327350D01*
X530644Y327780D01*
X531532Y328238D01*
X532405Y328724D01*
X533263Y329237D01*
X534103Y329777D01*
X534927Y330344D01*
X535732Y330937D01*
X536517Y331554D01*
X537283Y332197D01*
X538028Y332863D01*
X538751Y333553D01*
X539452Y334265D01*
X540130Y334999D01*
X540785Y335754D01*
X541415Y336530D01*
X542020Y337326D01*
X542600Y338140D01*
X543153Y338972D01*
X543680Y339821D01*
X544180Y340686D01*
X544652Y341567D01*
X545096Y342463D01*
X545511Y343372D01*
X545897Y344294D01*
X546254Y345227D01*
X546581Y346172D01*
X546878Y347126D01*
X547144Y348090D01*
X547380Y349061D01*
X547584Y350039D01*
X547758Y351023D01*
X547900Y352012D01*
X548011Y353006D01*
X548090Y354002D01*
X548138Y355000D01*
X548153Y356000D01*
D11*
X224579Y313669D02*
X223840Y314095D01*
Y313243D01*
X224579Y313669D01*
X415162Y222878D02*
X414423Y223304D01*
Y222452D01*
X415162Y222878D01*
X297992Y225669D02*
X297254Y226096D01*
Y225243D01*
X297992Y225669D01*
X195551Y320500D02*
X194813Y320926D01*
Y320074D01*
X195551Y320500D01*
X351992Y380118D02*
X351254Y380544D01*
Y379692D01*
X351992Y380118D01*
X511433Y409500D02*
X510695Y409926D01*
Y409074D01*
X511433Y409500D01*
X302606Y408465D02*
X301868Y408891D01*
Y408038D01*
X302606Y408465D01*
X186126Y372331D02*
X185388Y372757D01*
Y371904D01*
X186126Y372331D01*
X444823Y391055D02*
X444085Y391481D01*
Y390629D01*
X444823Y391055D01*
D12*
X407638Y408000D02*
X407606Y408999D01*
X407511Y409994D01*
X407353Y410980D01*
X407133Y411955D01*
X406851Y412914D01*
X406510Y413853D01*
X406109Y414768D01*
X405651Y415657D01*
X405138Y416514D01*
X404571Y417337D01*
X403954Y418123D01*
X403287Y418867D01*
X402575Y419568D01*
X401820Y420223D01*
X401024Y420828D01*
X400192Y421382D01*
X399327Y421881D01*
X398432Y422325D01*
X397510Y422711D01*
X396566Y423038D01*
X395602Y423304D01*
X394624Y423509D01*
X393635Y423651D01*
X392639Y423730D01*
X391640Y423746D01*
X390642Y423699D01*
X389649Y423588D01*
X388665Y423414D01*
X387693Y423179D01*
X386739Y422882D01*
X385806Y422525D01*
X384897Y422110D01*
X384016Y421638D01*
X383167Y421111D01*
X382353Y420532D01*
X381577Y419902D01*
X380843Y419223D01*
X380153Y418500D01*
X379511Y417735D01*
X378919Y416930D01*
X378378Y416089D01*
X377892Y415216D01*
X377463Y414314D01*
X377092Y413386D01*
X376780Y412437D01*
X376529Y411470D01*
X376340Y410488D01*
X376213Y409497D01*
X376150Y408500D01*
Y407500D01*
X376213Y406503D01*
X376340Y405512D01*
X376529Y404530D01*
X376780Y403563D01*
X377091Y402614D01*
X377463Y401686D01*
X377892Y400784D01*
X378378Y399911D01*
X378919Y399070D01*
X379511Y398265D01*
X380153Y397500D01*
X380843Y396777D01*
X381577Y396098D01*
X382353Y395468D01*
X383167Y394889D01*
X384016Y394362D01*
X384897Y393890D01*
X385806Y393475D01*
X386739Y393118D01*
X387693Y392821D01*
X388665Y392586D01*
X389649Y392412D01*
X390642Y392302D01*
X391640Y392254D01*
X392639Y392270D01*
X393635Y392349D01*
X394624Y392491D01*
X395602Y392696D01*
X396566Y392962D01*
X397510Y393289D01*
X398432Y393675D01*
X399327Y394119D01*
X400192Y394619D01*
X401024Y395172D01*
X401820Y395777D01*
X402575Y396432D01*
X403287Y397133D01*
X403953Y397877D01*
X404571Y398663D01*
X405138Y399486D01*
X405651Y400343D01*
X406109Y401231D01*
X406510Y402147D01*
X406851Y403086D01*
X407133Y404045D01*
X407353Y405020D01*
X407511Y406006D01*
X407606Y407001D01*
X407638Y408000D01*
X374173Y408000D02*
X373969Y408961D01*
X373392Y409756D01*
X372541Y410247D01*
X371564Y410349D01*
X370630Y410046D01*
X369900Y409388D01*
X369500Y408491D01*
Y407509D01*
X369900Y406611D01*
X370630Y405954D01*
X371564Y405651D01*
X372541Y405753D01*
X373392Y406245D01*
X373969Y407039D01*
X374173Y408000D01*
X323460Y285857D02*
X324195Y286601D01*
X324791Y287460D01*
X325232Y288407D01*
X325505Y289417D01*
X325602Y290458D01*
X325520Y291500D01*
X325261Y292513D01*
X324833Y293466D01*
X324248Y294333D01*
X323524Y295088D01*
X315476Y295048D02*
X314752Y294294D01*
X314167Y293427D01*
X313739Y292474D01*
X313480Y291461D01*
X313398Y290418D01*
X313494Y289377D01*
X313768Y288368D01*
X314209Y287420D01*
X314806Y286562D01*
X315540Y285818D01*
X233362Y294189D02*
X233158Y295150D01*
X232581Y295944D01*
X231730Y296436D01*
X230753Y296538D01*
X229819Y296235D01*
X229089Y295577D01*
X228689Y294680D01*
Y293698D01*
X229089Y292800D01*
X229819Y292143D01*
X230753Y291840D01*
X231730Y291942D01*
X232581Y292434D01*
X233158Y293228D01*
X233362Y294189D01*
X246748Y274110D02*
X246716Y275109D01*
X246621Y276104D01*
X246463Y277091D01*
X246243Y278065D01*
X245962Y279024D01*
X245620Y279963D01*
X245219Y280879D01*
X244761Y281767D01*
X244248Y282624D01*
X243681Y283447D01*
X243064Y284233D01*
X242397Y284978D01*
X241685Y285679D01*
X240930Y286333D01*
X240135Y286938D01*
X239303Y287492D01*
X238437Y287991D01*
X237542Y288435D01*
X236620Y288821D01*
X235676Y289148D01*
X234713Y289414D01*
X233735Y289619D01*
X232746Y289761D01*
X231749Y289840D01*
X230750Y289856D01*
X229752Y289809D01*
X228759Y289698D01*
X227775Y289524D01*
X226804Y289289D01*
X225849Y288992D01*
X224916Y288635D01*
X224007Y288220D01*
X223126Y287748D01*
X222277Y287222D01*
X221463Y286642D01*
X220687Y286012D01*
X219953Y285334D01*
X219264Y284611D01*
X218621Y283845D01*
X218029Y283040D01*
X217489Y282200D01*
X217003Y281326D01*
X216573Y280424D01*
X216202Y279496D01*
X215890Y278547D01*
X215639Y277580D01*
X215450Y276599D01*
X215323Y275607D01*
X215260Y274610D01*
Y273611D01*
X215323Y272613D01*
X215450Y271622D01*
X215639Y270641D01*
X215890Y269673D01*
X216202Y268724D01*
X216573Y267796D01*
X217003Y266894D01*
X217489Y266021D01*
X218029Y265180D01*
X218621Y264375D01*
X219264Y263610D01*
X219953Y262887D01*
X220687Y262209D01*
X221463Y261578D01*
X222277Y260999D01*
X223126Y260472D01*
X224007Y260000D01*
X224916Y259585D01*
X225849Y259228D01*
X226804Y258932D01*
X227775Y258696D01*
X228759Y258523D01*
X229752Y258412D01*
X230750Y258364D01*
X231749Y258380D01*
X232746Y258459D01*
X233735Y258601D01*
X234713Y258806D01*
X235676Y259072D01*
X236620Y259399D01*
X237542Y259785D01*
X238437Y260229D01*
X239303Y260729D01*
X240135Y261282D01*
X240930Y261887D01*
X241685Y262542D01*
X242397Y263243D01*
X243064Y263988D01*
X243681Y264773D01*
X244248Y265596D01*
X244761Y266454D01*
X245219Y267342D01*
X245620Y268257D01*
X245962Y269196D01*
X246243Y270155D01*
X246463Y271130D01*
X246621Y272117D01*
X246716Y273111D01*
X246748Y274110D01*
X185862Y294189D02*
X185658Y295150D01*
X185081Y295944D01*
X184230Y296436D01*
X183253Y296538D01*
X182319Y296235D01*
X181589Y295577D01*
X181189Y294680D01*
Y293698D01*
X181589Y292800D01*
X182319Y292143D01*
X183253Y291840D01*
X184230Y291942D01*
X185081Y292434D01*
X185658Y293228D01*
X185862Y294189D01*
X199248Y274110D02*
X199216Y275109D01*
X199121Y276104D01*
X198963Y277091D01*
X198743Y278065D01*
X198462Y279024D01*
X198120Y279963D01*
X197719Y280879D01*
X197261Y281767D01*
X196748Y282624D01*
X196181Y283447D01*
X195564Y284233D01*
X194897Y284978D01*
X194185Y285679D01*
X193430Y286333D01*
X192635Y286938D01*
X191803Y287492D01*
X190937Y287991D01*
X190042Y288435D01*
X189120Y288821D01*
X188176Y289148D01*
X187213Y289414D01*
X186235Y289619D01*
X185246Y289761D01*
X184249Y289840D01*
X183250Y289856D01*
X182252Y289809D01*
X181259Y289698D01*
X180275Y289524D01*
X179304Y289289D01*
X178349Y288992D01*
X177416Y288635D01*
X176507Y288220D01*
X175626Y287748D01*
X174777Y287222D01*
X173963Y286642D01*
X173187Y286012D01*
X172453Y285334D01*
X171764Y284611D01*
X171121Y283845D01*
X170529Y283040D01*
X169989Y282200D01*
X169503Y281326D01*
X169073Y280424D01*
X168702Y279496D01*
X168390Y278547D01*
X168139Y277580D01*
X167950Y276599D01*
X167823Y275607D01*
X167760Y274610D01*
Y273611D01*
X167823Y272613D01*
X167950Y271622D01*
X168139Y270641D01*
X168390Y269673D01*
X168702Y268724D01*
X169073Y267796D01*
X169503Y266894D01*
X169989Y266021D01*
X170529Y265180D01*
X171121Y264375D01*
X171764Y263610D01*
X172453Y262887D01*
X173187Y262209D01*
X173963Y261578D01*
X174777Y260999D01*
X175626Y260472D01*
X176507Y260000D01*
X177416Y259585D01*
X178349Y259228D01*
X179304Y258932D01*
X180275Y258696D01*
X181259Y258523D01*
X182252Y258412D01*
X183250Y258364D01*
X184249Y258380D01*
X185246Y258459D01*
X186235Y258601D01*
X187213Y258806D01*
X188176Y259072D01*
X189120Y259399D01*
X190042Y259785D01*
X190937Y260229D01*
X191803Y260729D01*
X192635Y261282D01*
X193430Y261887D01*
X194185Y262542D01*
X194897Y263243D01*
X195564Y263988D01*
X196181Y264773D01*
X196748Y265596D01*
X197261Y266454D01*
X197719Y267342D01*
X198120Y268257D01*
X198462Y269196D01*
X198743Y270155D01*
X198963Y271130D01*
X199121Y272117D01*
X199216Y273111D01*
X199248Y274110D01*
X364000Y379685D02*
X364190Y378728D01*
X364732Y377917D01*
X365543Y377375D01*
X366500Y377185D01*
X367457Y377375D01*
X368268Y377917D01*
X368810Y378728D01*
X369000Y379685D01*
X471452Y388894D02*
X472005Y388086D01*
X472639Y387338D01*
X473348Y386661D01*
X474123Y386061D01*
X474956Y385545D01*
X475838Y385118D01*
X476760Y384785D01*
X477711Y384549D01*
X478682Y384414D01*
X479661Y384379D01*
X480639Y384447D01*
X481604Y384616D01*
X482547Y384884D01*
X483457Y385248D01*
X484324Y385705D01*
X485139Y386250D01*
X485892Y386876D01*
X486577Y387577D01*
X487186Y388345D01*
X540279Y335921D02*
Y376079D01*
X504315Y306323D02*
Y321677D01*
X543685Y306323D02*
Y321677D01*
X504315Y306323D02*
X543685D01*
X504315Y321677D02*
X543685D01*
X526177Y241815D02*
Y281185D01*
X510823Y241815D02*
Y281185D01*
Y241815D02*
X526177D01*
X510823Y281185D02*
X526177D01*
X242787Y403177D02*
X282157D01*
X242787Y387823D02*
X282157D01*
Y403177D01*
X242787Y387823D02*
Y403177D01*
X201315Y421677D02*
X240685D01*
X201315Y406323D02*
X240685D01*
Y421677D01*
X201315Y406323D02*
Y421677D01*
X221528Y329221D02*
X262472D01*
Y311110D02*
Y329221D01*
X221528Y311110D02*
X262472D01*
X221528D02*
Y329221D01*
X221528Y327252D02*
X262472D01*
X434394Y209295D02*
Y295516D01*
X421913Y209295D02*
X434394D01*
X421913Y295516D02*
X434394D01*
X416598Y214000D02*
Y290811D01*
X434394Y247287D02*
X439118D01*
Y257524D01*
X434394D02*
X439118D01*
X274665Y245394D02*
Y250118D01*
X284902D01*
Y245394D02*
Y250118D01*
X253189Y227598D02*
X306378D01*
X248484Y232913D02*
Y245394D01*
X311083Y232913D02*
Y245394D01*
X248484D02*
X311083D01*
X369843Y408000D02*
X373780D01*
X371811Y406032D02*
Y409969D01*
X229031Y294189D02*
X232968D01*
X231000Y292220D02*
Y296158D01*
X280000Y305000D02*
X280866D01*
X280000Y320000D02*
X280866D01*
X289134D02*
X290000D01*
X289134Y305000D02*
X290000D01*
X280000D02*
Y320000D01*
X290000Y305000D02*
Y320000D01*
X172500Y309083D02*
Y331917D01*
X192500D01*
X172500Y309083D02*
X192500D01*
Y331917D01*
X280000Y267500D02*
X280866D01*
X280000Y282500D02*
X280866D01*
X289134D02*
X290000D01*
X289134Y267500D02*
X290000D01*
X280000D02*
Y282500D01*
X290000Y267500D02*
Y282500D01*
X181532Y294189D02*
X185468D01*
X183500Y292220D02*
Y296158D01*
X356067Y240315D02*
X376933D01*
X369000Y379685D02*
X376933D01*
X356067D02*
X364000D01*
X376933Y240315D02*
Y379685D01*
X356067Y240315D02*
Y379685D01*
X467000Y358976D02*
Y360551D01*
Y339449D02*
Y341024D01*
X463634Y344094D02*
X470366D01*
X463240Y341024D02*
X470760D01*
Y358976D01*
X463240D02*
X470760D01*
X463240Y341024D02*
Y358976D01*
X533500Y398083D02*
Y420917D01*
X513500Y398083D02*
X533500D01*
X513500Y420917D02*
X533500D01*
X513500Y398083D02*
Y420917D01*
X537323Y280713D02*
X552677D01*
X537323Y241342D02*
X552677D01*
X537323D02*
Y280713D01*
X552677Y241342D02*
Y280713D01*
X471370Y398630D02*
X487630D01*
X308118Y395650D02*
Y404350D01*
X312213Y387618D02*
X328787D01*
X332882Y395650D02*
Y404350D01*
X312213Y412382D02*
X328787D01*
X245476Y347882D02*
Y352606D01*
Y347882D02*
X255713D01*
Y352606D01*
X172051D02*
X329138D01*
X172051D02*
Y365087D01*
X329138Y352606D02*
Y365087D01*
X176756Y370402D02*
X324433D01*
X442402Y311311D02*
Y399933D01*
X424606Y306606D02*
X437087D01*
X424606Y404638D02*
X437087D01*
X424606Y306606D02*
Y404638D01*
X419882Y360740D02*
X424606D01*
X419882Y350504D02*
Y360740D01*
Y350504D02*
X424606D01*
X459823Y281185D02*
X475177D01*
X459823Y241815D02*
X475177D01*
X459823D02*
Y281185D01*
X475177Y241815D02*
Y281185D01*
X486323Y280685D02*
X501677D01*
X486323Y241315D02*
X501677D01*
X486323D02*
Y280685D01*
X501677Y241315D02*
Y280685D01*
D13*
X361185Y375748D02*
X360740Y376672D01*
X359741Y376900D01*
X358940Y376260D01*
Y375236D01*
X359741Y374597D01*
X360740Y374825D01*
X361185Y375748D01*
D14*
X248383Y253996D02*
Y259994D01*
X251382D01*
X252382Y258995D01*
Y256995D01*
X251382Y255995D01*
X248383D01*
X258380Y259994D02*
X256381Y258995D01*
X254381Y256995D01*
Y254996D01*
X255381Y253996D01*
X257380D01*
X258380Y254996D01*
Y255995D01*
X257380Y256995D01*
X254381D01*
X314050Y308548D02*
Y307548D01*
X316049Y305549D01*
X318049Y307548D01*
Y308548D01*
X316049Y305549D02*
Y302550D01*
X320048D02*
X322047D01*
X321048D01*
Y308548D01*
X320048Y307548D01*
X349150Y390148D02*
Y385150D01*
X350150Y384150D01*
X352149D01*
X353149Y385150D01*
Y390148D01*
X359147Y384150D02*
X355148D01*
X359147Y388149D01*
Y389148D01*
X358147Y390148D01*
X356148D01*
X355148Y389148D01*
X222100Y338598D02*
Y333600D01*
X223100Y332600D01*
X225099D01*
X226099Y333600D01*
Y338598D01*
X228098Y332600D02*
X230097D01*
X229098D01*
Y338598D01*
X228098Y337598D01*
X306149Y421148D02*
X305149Y422148D01*
X303150D01*
X302150Y421148D01*
Y420149D01*
X303150Y419149D01*
X305149D01*
X306149Y418149D01*
Y417150D01*
X305149Y416150D01*
X303150D01*
X302150Y417150D01*
X308148Y422148D02*
Y416150D01*
X310147Y418149D01*
X312147Y416150D01*
Y422148D01*
X314146Y416150D02*
X316145D01*
X315146D01*
Y422148D01*
X314146Y421148D01*
X513502Y298001D02*
Y303999D01*
X516501D01*
X517500Y302999D01*
Y301000D01*
X516501Y300000D01*
X513502D01*
X515501D02*
X517500Y298001D01*
X519500Y299001D02*
X520499Y298001D01*
X522499D01*
X523498Y299001D01*
Y302999D01*
X522499Y303999D01*
X520499D01*
X519500Y302999D01*
Y302000D01*
X520499Y301000D01*
X523498D01*
X460350Y297650D02*
Y303648D01*
X463349D01*
X464349Y302648D01*
Y300649D01*
X463349Y299649D01*
X460350D01*
X462349D02*
X464349Y297650D01*
X466348Y302648D02*
X467348Y303648D01*
X469347D01*
X470347Y302648D01*
Y301649D01*
X469347Y300649D01*
X470347Y299649D01*
Y298650D01*
X469347Y297650D01*
X467348D01*
X466348Y298650D01*
Y299649D01*
X467348Y300649D01*
X466348Y301649D01*
Y302648D01*
X467348Y300649D02*
X469347D01*
X486850Y297150D02*
Y303148D01*
X489849D01*
X490849Y302148D01*
Y300149D01*
X489849Y299149D01*
X486850D01*
X488849D02*
X490849Y297150D01*
X492848Y303148D02*
X496847D01*
Y302148D01*
X492848Y298150D01*
Y297150D01*
X537850Y297178D02*
Y303176D01*
X540849D01*
X541849Y302176D01*
Y300177D01*
X540849Y299177D01*
X537850D01*
X539849D02*
X541849Y297178D01*
X547847Y303176D02*
X545847Y302176D01*
X543848Y300177D01*
Y298177D01*
X544848Y297178D01*
X546847D01*
X547847Y298177D01*
Y299177D01*
X546847Y300177D01*
X543848D01*
X207002Y398001D02*
Y403999D01*
X210001D01*
X211000Y402999D01*
Y401000D01*
X210001Y400000D01*
X207002D01*
X209001D02*
X211000Y398001D01*
X216998Y403999D02*
X213000D01*
Y401000D01*
X214999Y402000D01*
X215999D01*
X216998Y401000D01*
Y399001D01*
X215999Y398001D01*
X213999D01*
X213000Y399001D01*
X492002Y321501D02*
Y327499D01*
X495001D01*
X496000Y326499D01*
Y324500D01*
X495001Y323500D01*
X492002D01*
X494001D02*
X496000Y321501D01*
X500999D02*
Y327499D01*
X498000Y324500D01*
X501998D01*
X238501Y377001D02*
Y382999D01*
X241500D01*
X242500Y381999D01*
Y380000D01*
X241500Y379000D01*
X238501D01*
X240501D02*
X242500Y377001D01*
X244499D02*
X246499D01*
X245499D01*
Y382999D01*
X244499Y381999D01*
X470199Y403100D02*
Y407098D01*
X469199Y408098D01*
X467200D01*
X466200Y407098D01*
Y403100D01*
X467200Y402100D01*
X469199D01*
X468199Y404099D02*
X470199Y402100D01*
X469199D02*
X470199Y403100D01*
X472198Y402100D02*
X474197D01*
X473198D01*
Y408098D01*
X472198Y407098D01*
X510950Y424450D02*
Y430448D01*
X513949D01*
X514949Y429448D01*
Y427449D01*
X513949Y426449D01*
X510950D01*
X520947Y430448D02*
X516948D01*
Y427449D01*
X518947Y428449D01*
X519947D01*
X520947Y427449D01*
Y425450D01*
X519947Y424450D01*
X517948D01*
X516948Y425450D01*
X414700Y299678D02*
Y305676D01*
X417699D01*
X418699Y304676D01*
Y302677D01*
X417699Y301677D01*
X414700D01*
X423697Y299678D02*
Y305676D01*
X420698Y302677D01*
X424697D01*
X420000Y408755D02*
Y414753D01*
X422999D01*
X423999Y413754D01*
Y411754D01*
X422999Y410754D01*
X420000D01*
X425998Y413754D02*
X426998Y414753D01*
X428997D01*
X429997Y413754D01*
Y412754D01*
X428997Y411754D01*
X427997D01*
X428997D01*
X429997Y410754D01*
Y409755D01*
X428997Y408755D01*
X426998D01*
X425998Y409755D01*
X171878Y376300D02*
Y382298D01*
X174877D01*
X175877Y381298D01*
Y379299D01*
X174877Y378299D01*
X171878D01*
X181875Y376300D02*
X177876D01*
X181875Y380299D01*
Y381298D01*
X180875Y382298D01*
X178876D01*
X177876Y381298D01*
X173000Y335400D02*
Y341398D01*
X175999D01*
X176999Y340398D01*
Y338399D01*
X175999Y337399D01*
X173000D01*
X178998Y335400D02*
X180997D01*
X179998D01*
Y341398D01*
X178998Y340398D01*
X501502Y396499D02*
Y390501D01*
X505501D01*
X511499Y395499D02*
X510499Y396499D01*
X508500D01*
X507500Y395499D01*
Y394500D01*
X508500Y393500D01*
X510499D01*
X511499Y392500D01*
Y391501D01*
X510499Y390501D01*
X508500D01*
X507500Y391501D01*
X513498Y390501D02*
X515498D01*
X514498D01*
Y396499D01*
X513498Y395499D01*
X463450Y377148D02*
Y371150D01*
X466449D01*
X467449Y372150D01*
Y376148D01*
X466449Y377148D01*
X463450D01*
X469448Y371150D02*
X471447D01*
X470448D01*
Y377148D01*
X469448Y376148D01*
X284499Y291098D02*
X283499Y292098D01*
X281500D01*
X280500Y291098D01*
Y287100D01*
X281500Y286100D01*
X283499D01*
X284499Y287100D01*
X290497Y292098D02*
X286498D01*
Y289099D01*
X288497Y290099D01*
X289497D01*
X290497Y289099D01*
Y287100D01*
X289497Y286100D01*
X287498D01*
X286498Y287100D01*
X284499Y328598D02*
X283499Y329598D01*
X281500D01*
X280500Y328598D01*
Y324600D01*
X281500Y323600D01*
X283499D01*
X284499Y324600D01*
X289497Y323600D02*
Y329598D01*
X286498Y326599D01*
X290497D01*
X374039Y432248D02*
X373039Y433248D01*
X371039D01*
X370040Y432248D01*
Y428250D01*
X371039Y427250D01*
X373039D01*
X374039Y428250D01*
X376038Y432248D02*
X377038Y433248D01*
X379037D01*
X380036Y432248D01*
Y431249D01*
X379037Y430249D01*
X378037D01*
X379037D01*
X380036Y429249D01*
Y428250D01*
X379037Y427250D01*
X377038D01*
X376038Y428250D01*
X219799Y304919D02*
X218799Y305919D01*
X216800D01*
X215800Y304919D01*
Y300920D01*
X216800Y299921D01*
X218799D01*
X219799Y300920D01*
X225797Y299921D02*
X221798D01*
X225797Y303919D01*
Y304919D01*
X224797Y305919D01*
X222798D01*
X221798Y304919D01*
X172299Y304898D02*
X171299Y305898D01*
X169300D01*
X168300Y304898D01*
Y300900D01*
X169300Y299900D01*
X171299D01*
X172299Y300900D01*
X174298Y299900D02*
X176297D01*
X175298D01*
Y305898D01*
X174298Y304898D01*
D15*
X157500Y438500D02*
X568500D01*
Y204000D02*
Y438500D01*
X157500Y204000D02*
X568500D01*
X157500D02*
Y438500D01*
M02*
