G04*
G04 #@! TF.GenerationSoftware,Altium Limited,Altium Designer,21.2.2 (38)*
G04*
G04 Layer_Color=255*
%FSLAX25Y25*%
%MOIN*%
G70*
G04*
G04 #@! TF.SameCoordinates,D0C09C63-79EA-4D83-9DA0-2B2549F26A19*
G04*
G04*
G04 #@! TF.FilePolarity,Positive*
G04*
G01*
G75*
%ADD15C,0.00004*%
%ADD16C,0.05709*%
%ADD17R,0.05709X0.05709*%
%ADD34C,0.04724*%
%ADD35R,0.04724X0.04724*%
%ADD38C,0.06063*%
%ADD39R,0.06063X0.06063*%
%ADD41R,0.06299X0.06299*%
%ADD42C,0.06299*%
%ADD43R,0.06299X0.06299*%
%ADD44R,0.06693X0.06693*%
%ADD45C,0.06693*%
%ADD46C,0.05984*%
%ADD47C,0.05000*%
%ADD48R,0.05984X0.05984*%
%ADD49R,0.05984X0.05984*%
%ADD50C,0.06000*%
%ADD51C,0.05512*%
%ADD52C,0.05118*%
%ADD53R,0.05118X0.05118*%
%ADD54C,0.05118*%
%ADD55C,0.05906*%
%ADD56R,0.05906X0.05906*%
%ADD57C,0.06102*%
%ADD58R,0.06102X0.06102*%
D15*
X157500Y438500D02*
X568500D01*
Y204000D02*
Y438500D01*
X157500Y204000D02*
X568500D01*
X157500D02*
Y438500D01*
D16*
X526500Y356000D02*
D03*
D17*
X506815D02*
D03*
D34*
X467000Y365012D02*
D03*
D35*
Y334988D02*
D03*
D38*
X333295Y391142D02*
D03*
X307705D02*
D03*
X333295Y408858D02*
D03*
D39*
X307705D02*
D03*
D41*
X553527Y314000D02*
D03*
X292000Y395500D02*
D03*
X250528Y414000D02*
D03*
D42*
X494472Y314000D02*
D03*
X518500Y291028D02*
D03*
X232945Y395500D02*
D03*
X191472Y414000D02*
D03*
X545000Y290555D02*
D03*
X467500Y291028D02*
D03*
X494000Y290528D02*
D03*
D43*
X518500Y231972D02*
D03*
X545000Y231500D02*
D03*
X467500Y231972D02*
D03*
X494000Y231472D02*
D03*
D44*
X232000Y318000D02*
D03*
X187500Y320500D02*
D03*
X518500Y409500D02*
D03*
D45*
X242000Y318000D02*
D03*
X252000D02*
D03*
X177500Y320500D02*
D03*
X528500Y409500D02*
D03*
D46*
X426500Y258311D02*
D03*
Y234689D02*
D03*
Y246500D02*
D03*
Y270122D02*
D03*
Y281933D02*
D03*
X262067Y237500D02*
D03*
X273878D02*
D03*
X285689D02*
D03*
X315555Y360500D02*
D03*
X303744D02*
D03*
X280122D02*
D03*
X256500D02*
D03*
X244689D02*
D03*
X221067D02*
D03*
X197445D02*
D03*
X209256D02*
D03*
X232878D02*
D03*
X268311D02*
D03*
X291933D02*
D03*
X432500Y343811D02*
D03*
Y367433D02*
D03*
Y379244D02*
D03*
Y355622D02*
D03*
Y332000D02*
D03*
Y320189D02*
D03*
D47*
X418784Y211067D02*
D03*
Y293744D02*
D03*
X250256Y229784D02*
D03*
X309311D02*
D03*
X173823Y368216D02*
D03*
X327366D02*
D03*
X440216Y308378D02*
D03*
Y402866D02*
D03*
D48*
X426500Y222878D02*
D03*
X432500Y391055D02*
D03*
D49*
X297500Y237500D02*
D03*
X185634Y360500D02*
D03*
D50*
X174000Y226000D02*
D03*
X556500Y217500D02*
D03*
X551500Y425500D02*
D03*
X172500Y422500D02*
D03*
D51*
X385000Y408000D02*
D03*
X398780D02*
D03*
X231000Y267220D02*
D03*
Y281000D02*
D03*
X183500Y267220D02*
D03*
Y281000D02*
D03*
D52*
X319500Y284398D02*
D03*
Y296602D02*
D03*
D53*
X285000Y307500D02*
D03*
Y270000D02*
D03*
D54*
Y317500D02*
D03*
Y280000D02*
D03*
D55*
X381500Y245000D02*
D03*
Y255000D02*
D03*
Y265000D02*
D03*
Y275000D02*
D03*
Y285000D02*
D03*
Y295000D02*
D03*
Y305000D02*
D03*
Y315000D02*
D03*
Y325000D02*
D03*
Y335000D02*
D03*
Y345000D02*
D03*
Y355000D02*
D03*
Y365000D02*
D03*
Y375000D02*
D03*
X351500Y245000D02*
D03*
Y255000D02*
D03*
Y265000D02*
D03*
Y275000D02*
D03*
Y285000D02*
D03*
Y295000D02*
D03*
Y305000D02*
D03*
Y315000D02*
D03*
Y325000D02*
D03*
Y335000D02*
D03*
Y345000D02*
D03*
Y355000D02*
D03*
Y365000D02*
D03*
D56*
Y375000D02*
D03*
D57*
X469264Y393000D02*
D03*
X479500D02*
D03*
D58*
X489736D02*
D03*
M02*
