G04*
G04 #@! TF.GenerationSoftware,Altium Limited,Altium Designer,21.2.2 (38)*
G04*
G04 Layer_Physical_Order=1*
G04 Layer_Color=255*
%FSLAX25Y25*%
%MOIN*%
G70*
G04*
G04 #@! TF.SameCoordinates,D0C09C63-79EA-4D83-9DA0-2B2549F26A19*
G04*
G04*
G04 #@! TF.FilePolarity,Positive*
G04*
G01*
G75*
%ADD15C,0.00004*%
%ADD16C,0.05709*%
%ADD17R,0.05709X0.05709*%
%ADD34C,0.04724*%
%ADD35R,0.04724X0.04724*%
%ADD38C,0.06063*%
%ADD39R,0.06063X0.06063*%
%ADD40C,0.03543*%
%ADD41R,0.06299X0.06299*%
%ADD42C,0.06299*%
%ADD43R,0.06299X0.06299*%
%ADD44R,0.06693X0.06693*%
%ADD45C,0.06693*%
%ADD46C,0.05984*%
%ADD47C,0.05000*%
%ADD48R,0.05984X0.05984*%
%ADD49R,0.05984X0.05984*%
%ADD50C,0.06000*%
%ADD51C,0.05512*%
%ADD52C,0.05118*%
%ADD53R,0.05118X0.05118*%
%ADD54C,0.05118*%
%ADD55C,0.05906*%
%ADD56R,0.05906X0.05906*%
%ADD57C,0.06102*%
%ADD58R,0.06102X0.06102*%
G36*
X568500Y204000D02*
X157500D01*
Y438500D01*
X568500D01*
Y204000D01*
D02*
G37*
%LPC*%
G36*
X551500Y434417D02*
X549760Y434246D01*
X548088Y433738D01*
X546546Y432914D01*
X545195Y431805D01*
X544086Y430454D01*
X543262Y428912D01*
X542754Y427240D01*
X542583Y425500D01*
X542754Y423760D01*
X543262Y422088D01*
X544086Y420546D01*
X545195Y419195D01*
X546546Y418086D01*
X548088Y417262D01*
X549760Y416754D01*
X551500Y416583D01*
X553240Y416754D01*
X554912Y417262D01*
X556454Y418086D01*
X557805Y419195D01*
X558914Y420546D01*
X559738Y422088D01*
X560246Y423760D01*
X560417Y425500D01*
X560246Y427240D01*
X559738Y428912D01*
X558914Y430454D01*
X557805Y431805D01*
X556454Y432914D01*
X554912Y433738D01*
X553240Y434246D01*
X551500Y434417D01*
D02*
G37*
G36*
X254677Y418150D02*
X251028D01*
Y414500D01*
X254677D01*
Y418150D01*
D02*
G37*
G36*
X250028D02*
X246378D01*
Y414500D01*
X250028D01*
Y418150D01*
D02*
G37*
G36*
X172500Y431417D02*
X170760Y431246D01*
X169088Y430738D01*
X167546Y429914D01*
X166195Y428805D01*
X165086Y427454D01*
X164262Y425912D01*
X163754Y424240D01*
X163583Y422500D01*
X163754Y420760D01*
X164262Y419088D01*
X165086Y417546D01*
X166195Y416195D01*
X167546Y415086D01*
X169088Y414262D01*
X170760Y413754D01*
X172500Y413583D01*
X174240Y413754D01*
X175912Y414262D01*
X177454Y415086D01*
X178805Y416195D01*
X179914Y417546D01*
X180738Y419088D01*
X181246Y420760D01*
X181417Y422500D01*
X181246Y424240D01*
X180738Y425912D01*
X179914Y427454D01*
X178805Y428805D01*
X177454Y429914D01*
X175912Y430738D01*
X174240Y431246D01*
X172500Y431417D01*
D02*
G37*
G36*
X254677Y413500D02*
X251028D01*
Y409850D01*
X254677D01*
Y413500D01*
D02*
G37*
G36*
X250028D02*
X246378D01*
Y409850D01*
X250028D01*
Y413500D01*
D02*
G37*
G36*
X333795Y412859D02*
Y409358D01*
X337296D01*
X337223Y409911D01*
X336817Y410891D01*
X336171Y411734D01*
X335328Y412380D01*
X334348Y412786D01*
X333795Y412859D01*
D02*
G37*
G36*
X332795D02*
X332243Y412786D01*
X331262Y412380D01*
X330420Y411734D01*
X329774Y410891D01*
X329368Y409911D01*
X329295Y409358D01*
X332795D01*
Y412859D01*
D02*
G37*
G36*
X311736Y412890D02*
X308205D01*
Y409358D01*
X311736D01*
Y412890D01*
D02*
G37*
G36*
X307205D02*
X303673D01*
Y409358D01*
X307205D01*
Y412890D01*
D02*
G37*
G36*
X399279Y411723D02*
Y408500D01*
X402502D01*
X402439Y408981D01*
X402060Y409894D01*
X401458Y410679D01*
X400674Y411281D01*
X399760Y411659D01*
X399279Y411723D01*
D02*
G37*
G36*
X398280D02*
X397799Y411659D01*
X396885Y411281D01*
X396101Y410679D01*
X395499Y409894D01*
X395120Y408981D01*
X395057Y408500D01*
X398280D01*
Y411723D01*
D02*
G37*
G36*
X337296Y408358D02*
X333795D01*
Y404858D01*
X334348Y404930D01*
X335328Y405337D01*
X336171Y405983D01*
X336817Y406825D01*
X337223Y407806D01*
X337296Y408358D01*
D02*
G37*
G36*
X332795D02*
X329295D01*
X329368Y407806D01*
X329774Y406825D01*
X330420Y405983D01*
X331262Y405337D01*
X332243Y404930D01*
X332795Y404858D01*
Y408358D01*
D02*
G37*
G36*
X311736D02*
X308205D01*
Y404827D01*
X311736D01*
Y408358D01*
D02*
G37*
G36*
X307205D02*
X303673D01*
Y404827D01*
X307205D01*
Y408358D01*
D02*
G37*
G36*
X402502Y407500D02*
X399279D01*
Y404278D01*
X399760Y404341D01*
X400674Y404719D01*
X401458Y405321D01*
X402060Y406106D01*
X402439Y407020D01*
X402502Y407500D01*
D02*
G37*
G36*
X398280D02*
X395057D01*
X395120Y407020D01*
X395499Y406106D01*
X396101Y405321D01*
X396885Y404719D01*
X397799Y404341D01*
X398280Y404278D01*
Y407500D01*
D02*
G37*
G36*
X385000Y411788D02*
X384019Y411659D01*
X383106Y411281D01*
X382321Y410679D01*
X381719Y409894D01*
X381341Y408981D01*
X381312Y408766D01*
X351500Y378954D01*
X345056Y385397D01*
X344477Y385841D01*
X343803Y386121D01*
X343080Y386216D01*
X342175D01*
X337348Y391042D01*
X337362Y391142D01*
X337223Y392194D01*
X336817Y393175D01*
X336171Y394017D01*
X335328Y394663D01*
X334348Y395070D01*
X333295Y395208D01*
X332243Y395070D01*
X331262Y394663D01*
X330420Y394017D01*
X330359Y393937D01*
X310641D01*
X310580Y394017D01*
X309738Y394663D01*
X308757Y395070D01*
X307705Y395208D01*
X307003Y395116D01*
X304641Y397477D01*
X304062Y397921D01*
X303388Y398200D01*
X302665Y398296D01*
X296150D01*
Y399650D01*
X287850D01*
Y391350D01*
X296150D01*
Y392704D01*
X301507D01*
X303725Y390486D01*
X303777Y390089D01*
X304183Y389109D01*
X304829Y388266D01*
X305672Y387620D01*
X306652Y387214D01*
X307705Y387075D01*
X308757Y387214D01*
X309738Y387620D01*
X310580Y388266D01*
X310641Y388346D01*
X330359D01*
X330420Y388266D01*
X331262Y387620D01*
X332243Y387214D01*
X333295Y387075D01*
X333395Y387089D01*
X339040Y381444D01*
X339619Y380999D01*
X340293Y380720D01*
X341017Y380625D01*
X341922D01*
X347547Y374999D01*
Y371047D01*
X355453D01*
Y374999D01*
X384704Y404251D01*
X385000Y404212D01*
X385981Y404341D01*
X386894Y404719D01*
X387679Y405321D01*
X388281Y406106D01*
X388659Y407020D01*
X388788Y408000D01*
X388659Y408981D01*
X388281Y409894D01*
X387679Y410679D01*
X386894Y411281D01*
X385981Y411659D01*
X385000Y411788D01*
D02*
G37*
G36*
X493787Y397051D02*
X490236D01*
Y393500D01*
X493787D01*
Y397051D01*
D02*
G37*
G36*
X489236D02*
X485685D01*
Y393500D01*
X489236D01*
Y397051D01*
D02*
G37*
G36*
X232945Y399685D02*
X231862Y399543D01*
X230852Y399125D01*
X229985Y398460D01*
X229320Y397593D01*
X228902Y396583D01*
X228760Y395500D01*
X228902Y394417D01*
X229320Y393407D01*
X229985Y392541D01*
X230852Y391875D01*
X231862Y391457D01*
X232945Y391315D01*
X234028Y391457D01*
X235038Y391875D01*
X235904Y392541D01*
X236570Y393407D01*
X236988Y394417D01*
X237130Y395500D01*
X236988Y396583D01*
X236570Y397593D01*
X235904Y398460D01*
X235038Y399125D01*
X234028Y399543D01*
X232945Y399685D01*
D02*
G37*
G36*
X493787Y392500D02*
X490236D01*
Y388949D01*
X493787D01*
Y392500D01*
D02*
G37*
G36*
X489236D02*
X485685D01*
Y388949D01*
X489236D01*
Y392500D01*
D02*
G37*
G36*
X479500Y397086D02*
X478442Y396947D01*
X477457Y396539D01*
X476611Y395889D01*
X475961Y395043D01*
X475553Y394058D01*
X475414Y393000D01*
X475553Y391942D01*
X475961Y390957D01*
X476611Y390111D01*
X477457Y389461D01*
X478442Y389053D01*
X479500Y388914D01*
X480558Y389053D01*
X481543Y389461D01*
X482389Y390111D01*
X483039Y390957D01*
X483447Y391942D01*
X483586Y393000D01*
X483447Y394058D01*
X483039Y395043D01*
X482389Y395889D01*
X481543Y396539D01*
X480558Y396947D01*
X479500Y397086D01*
D02*
G37*
G36*
X442400Y410933D02*
X433253D01*
X432530Y410838D01*
X431856Y410559D01*
X431277Y410115D01*
X431277Y410114D01*
X401346Y380184D01*
X400902Y379605D01*
X400623Y378931D01*
X400527Y378207D01*
Y352556D01*
X398022Y350050D01*
X397499Y350235D01*
X397410Y350914D01*
X397057Y351765D01*
X396496Y352496D01*
X395765Y353057D01*
X394914Y353410D01*
X394500Y353464D01*
Y350000D01*
X394000D01*
Y349500D01*
X390536D01*
X390590Y349086D01*
X390943Y348235D01*
X391144Y347972D01*
X390923Y347524D01*
X384546D01*
X384319Y347819D01*
X383493Y348453D01*
X382532Y348851D01*
X381500Y348987D01*
X380468Y348851D01*
X379507Y348453D01*
X378681Y347819D01*
X378592Y347704D01*
X378119Y347865D01*
Y352135D01*
X378592Y352296D01*
X378681Y352181D01*
X379507Y351547D01*
X380468Y351149D01*
X381500Y351013D01*
X382532Y351149D01*
X383493Y351547D01*
X384319Y352181D01*
X384953Y353007D01*
X385351Y353968D01*
X385487Y355000D01*
X385351Y356032D01*
X384953Y356993D01*
X384319Y357819D01*
X383493Y358453D01*
X382532Y358851D01*
X381500Y358987D01*
X380468Y358851D01*
X380105Y358700D01*
X379821Y359124D01*
X381742Y361045D01*
X382532Y361149D01*
X383493Y361547D01*
X384319Y362181D01*
X384953Y363007D01*
X385351Y363968D01*
X385487Y365000D01*
X385351Y366032D01*
X384953Y366993D01*
X384319Y367819D01*
X383493Y368453D01*
X382532Y368851D01*
X381500Y368987D01*
X380468Y368851D01*
X379689Y368528D01*
X379406Y368952D01*
X381471Y371017D01*
X381500Y371013D01*
X382532Y371149D01*
X383493Y371547D01*
X384319Y372181D01*
X384953Y373007D01*
X385351Y373968D01*
X385487Y375000D01*
X385351Y376032D01*
X384953Y376993D01*
X384319Y377819D01*
X383493Y378453D01*
X382532Y378851D01*
X381500Y378987D01*
X380468Y378851D01*
X379507Y378453D01*
X378681Y377819D01*
X378047Y376993D01*
X377649Y376032D01*
X377513Y375000D01*
X377517Y374971D01*
X367023Y364477D01*
X366579Y363898D01*
X366300Y363224D01*
X366204Y362500D01*
Y319895D01*
X365704Y319725D01*
X365496Y319996D01*
X364765Y320557D01*
X363914Y320910D01*
X363500Y320964D01*
Y317500D01*
Y314036D01*
X363914Y314090D01*
X364765Y314443D01*
X365496Y315004D01*
X365704Y315275D01*
X366204Y315105D01*
Y255562D01*
X355951Y245309D01*
X355423Y245488D01*
X355351Y246032D01*
X354953Y246993D01*
X354319Y247819D01*
X353493Y248453D01*
X352532Y248851D01*
X351500Y248987D01*
X350468Y248851D01*
X349507Y248453D01*
X348681Y247819D01*
X348047Y246993D01*
X347649Y246032D01*
X347513Y245000D01*
X347649Y243968D01*
X348047Y243007D01*
X348381Y242571D01*
X348135Y242071D01*
X343608D01*
X339971Y245708D01*
X339392Y246152D01*
X338718Y246432D01*
X337994Y246527D01*
X303731D01*
X303008Y246432D01*
X302334Y246152D01*
X301755Y245708D01*
X301755Y245708D01*
X297539Y241492D01*
X293508D01*
Y234532D01*
X292831D01*
X289693Y237670D01*
X289578Y238542D01*
X289176Y239513D01*
X288536Y240347D01*
X287702Y240987D01*
X286731Y241389D01*
X285689Y241527D01*
X284647Y241389D01*
X283676Y240987D01*
X282842Y240347D01*
X282202Y239513D01*
X281800Y238542D01*
X281662Y237500D01*
X281800Y236458D01*
X282202Y235487D01*
X282842Y234653D01*
X283676Y234013D01*
X284647Y233611D01*
X285689Y233473D01*
X285948Y233508D01*
X289696Y229759D01*
X290275Y229315D01*
X290950Y229036D01*
X291673Y228941D01*
X303808D01*
X304532Y229036D01*
X305206Y229315D01*
X305387Y229454D01*
X305849Y229263D01*
X305901Y228870D01*
X306254Y228018D01*
X306815Y227287D01*
X307546Y226726D01*
X308397Y226374D01*
X309311Y226253D01*
X310225Y226374D01*
X311076Y226726D01*
X311807Y227287D01*
X312368Y228018D01*
X312721Y228870D01*
X312841Y229784D01*
X312721Y230697D01*
X312368Y231549D01*
X312167Y231811D01*
X312388Y232259D01*
X330329D01*
X330878Y232032D01*
X331602Y231937D01*
X355753D01*
X356477Y232032D01*
X357151Y232311D01*
X357730Y232755D01*
X375520Y250546D01*
X375964Y251125D01*
X376244Y251799D01*
X376339Y252523D01*
X376339Y252523D01*
Y279239D01*
X377300Y280200D01*
X377300Y280200D01*
X377744Y280779D01*
X378024Y281453D01*
X378109Y282104D01*
X378425Y282281D01*
X378567Y282329D01*
X378681Y282181D01*
X379507Y281547D01*
X380468Y281149D01*
X381500Y281013D01*
X382532Y281149D01*
X383493Y281547D01*
X384221Y282106D01*
X384534Y282056D01*
X384733Y281572D01*
X384733Y281547D01*
X382094Y278909D01*
X381500Y278987D01*
X380468Y278851D01*
X379507Y278453D01*
X378681Y277819D01*
X378047Y276993D01*
X377649Y276032D01*
X377513Y275000D01*
X377649Y273968D01*
X378047Y273007D01*
X378681Y272181D01*
X379507Y271547D01*
X380468Y271149D01*
X381500Y271013D01*
X382532Y271149D01*
X383493Y271547D01*
X384319Y272181D01*
X384953Y273007D01*
X385351Y273968D01*
X385395Y274302D01*
X386563Y275470D01*
X387037Y275237D01*
X386970Y274728D01*
X387090Y273815D01*
X387443Y272963D01*
X388004Y272232D01*
X388735Y271671D01*
X389586Y271318D01*
X390325Y271221D01*
X410976Y250571D01*
X410976Y250571D01*
X411555Y250126D01*
X412229Y249847D01*
X412619Y249796D01*
X412586Y249296D01*
X401158D01*
X385483Y264971D01*
X385487Y265000D01*
X385351Y266032D01*
X384953Y266993D01*
X384319Y267819D01*
X383493Y268453D01*
X382532Y268851D01*
X381500Y268987D01*
X380468Y268851D01*
X379507Y268453D01*
X378681Y267819D01*
X378047Y266993D01*
X377649Y266032D01*
X377513Y265000D01*
X377649Y263968D01*
X378047Y263007D01*
X378681Y262181D01*
X379507Y261547D01*
X380468Y261149D01*
X381500Y261013D01*
X381529Y261017D01*
X383594Y258952D01*
X383311Y258528D01*
X382532Y258851D01*
X381500Y258987D01*
X380468Y258851D01*
X379507Y258453D01*
X378681Y257819D01*
X378047Y256993D01*
X377649Y256032D01*
X377513Y255000D01*
X377649Y253968D01*
X378047Y253007D01*
X378681Y252181D01*
X379507Y251547D01*
X380468Y251149D01*
X381500Y251013D01*
X382532Y251149D01*
X383493Y251547D01*
X384319Y252181D01*
X384953Y253007D01*
X385351Y253968D01*
X385487Y255000D01*
X385351Y256032D01*
X385028Y256811D01*
X385452Y257094D01*
X398023Y244523D01*
X398602Y244079D01*
X399276Y243800D01*
X400000Y243704D01*
X423613D01*
X423653Y243653D01*
X424487Y243013D01*
X425458Y242611D01*
X426500Y242473D01*
X427542Y242611D01*
X428513Y243013D01*
X428968Y243362D01*
X429468Y243115D01*
Y238074D01*
X428968Y237827D01*
X428513Y238176D01*
X427542Y238578D01*
X426500Y238716D01*
X425458Y238578D01*
X424487Y238176D01*
X423653Y237536D01*
X423013Y236702D01*
X422611Y235731D01*
X422473Y234689D01*
X422611Y233647D01*
X423013Y232676D01*
X423653Y231842D01*
X424487Y231202D01*
X425458Y230800D01*
X426500Y230662D01*
X427542Y230800D01*
X428513Y231202D01*
X428968Y231551D01*
X429468Y231304D01*
Y229800D01*
X426539Y226870D01*
X422508D01*
Y218886D01*
X430492D01*
Y222917D01*
X434240Y226665D01*
X434240Y226665D01*
X434685Y227244D01*
X434964Y227918D01*
X435059Y228642D01*
X435059Y228642D01*
Y248887D01*
X434964Y249611D01*
X434685Y250285D01*
X434240Y250864D01*
X434240Y250864D01*
X430581Y254524D01*
X430002Y254968D01*
X429673Y255104D01*
X429656Y255123D01*
X429532Y255704D01*
X429987Y256298D01*
X430389Y257269D01*
X430527Y258311D01*
X430389Y259353D01*
X429987Y260324D01*
X429347Y261158D01*
X428513Y261798D01*
X427542Y262200D01*
X426500Y262338D01*
X426436Y262329D01*
X407060Y281704D01*
X407267Y282204D01*
X410464D01*
X422482Y270187D01*
X422473Y270122D01*
X422611Y269080D01*
X423013Y268109D01*
X423653Y267275D01*
X424487Y266635D01*
X425458Y266233D01*
X426500Y266095D01*
X427542Y266233D01*
X428513Y266635D01*
X429347Y267275D01*
X429987Y268109D01*
X430389Y269080D01*
X430527Y270122D01*
X430389Y271164D01*
X429987Y272135D01*
X429347Y272969D01*
X428513Y273609D01*
X427542Y274011D01*
X426500Y274149D01*
X426436Y274140D01*
X413599Y286977D01*
X413020Y287421D01*
X412346Y287700D01*
X411622Y287796D01*
X384337D01*
X384319Y287819D01*
X383493Y288453D01*
X382532Y288851D01*
X381500Y288987D01*
X380468Y288851D01*
X379507Y288453D01*
X378681Y287819D01*
X378592Y287704D01*
X378119Y287865D01*
Y292135D01*
X378592Y292296D01*
X378681Y292181D01*
X379507Y291547D01*
X380468Y291149D01*
X381500Y291013D01*
X382532Y291149D01*
X383493Y291547D01*
X384319Y292181D01*
X384953Y293007D01*
X385351Y293968D01*
X385487Y295000D01*
X385351Y296032D01*
X384953Y296993D01*
X384319Y297819D01*
X383493Y298453D01*
X382532Y298851D01*
X381500Y298987D01*
X380468Y298851D01*
X379507Y298453D01*
X378681Y297819D01*
X378592Y297704D01*
X378119Y297865D01*
Y302135D01*
X378592Y302296D01*
X378681Y302181D01*
X379507Y301547D01*
X380468Y301149D01*
X381000Y301079D01*
Y305000D01*
Y308921D01*
X380468Y308851D01*
X379507Y308453D01*
X378681Y307819D01*
X378592Y307704D01*
X378119Y307865D01*
Y312135D01*
X378592Y312296D01*
X378681Y312181D01*
X379507Y311547D01*
X380468Y311149D01*
X381000Y311079D01*
Y315000D01*
Y318921D01*
X380468Y318851D01*
X379507Y318453D01*
X378681Y317819D01*
X378592Y317704D01*
X378119Y317865D01*
Y322135D01*
X378592Y322296D01*
X378681Y322181D01*
X379507Y321547D01*
X380468Y321149D01*
X381500Y321013D01*
X382532Y321149D01*
X383493Y321547D01*
X384319Y322181D01*
X384337Y322204D01*
X389776D01*
X390499Y322300D01*
X391173Y322579D01*
X391752Y323023D01*
X414386Y345656D01*
X414388Y345656D01*
X414886Y345486D01*
Y344891D01*
X414532Y344430D01*
X414253Y343756D01*
X414157Y343032D01*
Y324186D01*
X414253Y323463D01*
X414532Y322789D01*
X414976Y322210D01*
X454056Y283130D01*
X454635Y282685D01*
X455309Y282406D01*
X456033Y282311D01*
X456033Y282311D01*
X474427D01*
X520154Y236584D01*
X519963Y236122D01*
X519000D01*
Y232472D01*
X522650D01*
Y233435D01*
X523111Y233626D01*
X527215Y229523D01*
X527215Y229523D01*
X527794Y229079D01*
X528468Y228800D01*
X529191Y228704D01*
X529191Y228704D01*
X540850D01*
Y227350D01*
X549150D01*
Y235650D01*
X540850D01*
Y234296D01*
X530349D01*
X477562Y287083D01*
X476983Y287527D01*
X476309Y287807D01*
X475585Y287902D01*
X470962D01*
X470716Y288402D01*
X471125Y288935D01*
X471543Y289944D01*
X471685Y291028D01*
X471543Y292111D01*
X471125Y293120D01*
X470460Y293987D01*
X469593Y294652D01*
X468583Y295070D01*
X467500Y295213D01*
X467295Y295186D01*
X440782Y321699D01*
X440203Y322143D01*
X439529Y322422D01*
X438806Y322517D01*
X435745D01*
X435347Y323036D01*
X434513Y323676D01*
X433542Y324078D01*
X432500Y324216D01*
X431458Y324078D01*
X430487Y323676D01*
X429653Y323036D01*
X429013Y322202D01*
X428611Y321231D01*
X428473Y320189D01*
X428611Y319147D01*
X429013Y318176D01*
X429653Y317342D01*
X430487Y316702D01*
X431458Y316300D01*
X432500Y316162D01*
X433542Y316300D01*
X434513Y316702D01*
X434806Y316926D01*
X437648D01*
X463342Y291232D01*
X463315Y291028D01*
X463457Y289944D01*
X463875Y288935D01*
X464284Y288402D01*
X464038Y287902D01*
X457191D01*
X440641Y304451D01*
X440802Y304925D01*
X441130Y304968D01*
X441982Y305321D01*
X442713Y305882D01*
X443274Y306613D01*
X443626Y307464D01*
X443747Y308378D01*
X443626Y309292D01*
X443274Y310143D01*
X442713Y310874D01*
X441982Y311435D01*
X441130Y311788D01*
X440216Y311908D01*
X439303Y311788D01*
X438451Y311435D01*
X437720Y310874D01*
X437159Y310143D01*
X436807Y309292D01*
X436763Y308963D01*
X436290Y308803D01*
X419748Y325344D01*
Y341901D01*
X420102Y342362D01*
X420381Y343037D01*
X420477Y343760D01*
Y360894D01*
X420738Y361235D01*
X421091Y362086D01*
X421211Y363000D01*
X421091Y363914D01*
X420738Y364765D01*
X420177Y365496D01*
X419446Y366057D01*
X418595Y366410D01*
X417681Y366530D01*
X416767Y366410D01*
X415916Y366057D01*
X415654Y365856D01*
X415205Y366077D01*
Y369807D01*
X432461Y387063D01*
X435468D01*
Y386386D01*
X432330Y383248D01*
X431458Y383133D01*
X430487Y382731D01*
X429653Y382091D01*
X429013Y381257D01*
X428611Y380286D01*
X428473Y379244D01*
X428611Y378202D01*
X429013Y377231D01*
X429653Y376397D01*
X430487Y375757D01*
X431458Y375355D01*
X432500Y375218D01*
X433542Y375355D01*
X434513Y375757D01*
X435347Y376397D01*
X435987Y377231D01*
X436389Y378202D01*
X436527Y379244D01*
X436492Y379503D01*
X440241Y383252D01*
X440685Y383830D01*
X440964Y384505D01*
X441059Y385228D01*
Y395195D01*
X440964Y395919D01*
X440685Y396593D01*
X440241Y397172D01*
X438617Y398796D01*
X438038Y399240D01*
X437364Y399519D01*
X436640Y399615D01*
X429337D01*
X429146Y400076D01*
X434411Y405342D01*
X437140D01*
X437361Y404894D01*
X437159Y404631D01*
X436807Y403780D01*
X436686Y402866D01*
X436807Y401952D01*
X437159Y401101D01*
X437720Y400370D01*
X438451Y399809D01*
X439303Y399456D01*
X440216Y399336D01*
X441130Y399456D01*
X441982Y399809D01*
X442244Y400010D01*
X442693Y399789D01*
Y381579D01*
X432564Y371451D01*
X432500Y371460D01*
X431458Y371322D01*
X430487Y370920D01*
X429653Y370280D01*
X429013Y369446D01*
X428611Y368475D01*
X428473Y367433D01*
X428611Y366391D01*
X429013Y365420D01*
X429653Y364586D01*
X430487Y363946D01*
X431458Y363544D01*
X432500Y363406D01*
X433542Y363544D01*
X434513Y363946D01*
X435347Y364586D01*
X435987Y365420D01*
X436389Y366391D01*
X436527Y367433D01*
X436518Y367498D01*
X447465Y378445D01*
X447909Y379024D01*
X448188Y379698D01*
X448284Y380421D01*
X448284Y380421D01*
Y405050D01*
X448188Y405773D01*
X447909Y406448D01*
X447465Y407026D01*
X444377Y410115D01*
X443798Y410559D01*
X443124Y410838D01*
X442400Y410933D01*
D02*
G37*
G36*
X327366Y371747D02*
X326453Y371626D01*
X325601Y371274D01*
X324870Y370713D01*
X324309Y369982D01*
X323956Y369130D01*
X323836Y368216D01*
X323956Y367303D01*
X324309Y366451D01*
X324511Y366189D01*
X324289Y365740D01*
X322419D01*
X319919Y368240D01*
X319340Y368685D01*
X318666Y368964D01*
X317943Y369059D01*
X265924D01*
X265200Y368964D01*
X264526Y368685D01*
X263947Y368240D01*
X263947Y368240D01*
X260429Y364722D01*
X259984Y364143D01*
X259768Y363620D01*
X259656Y363548D01*
X259367Y363463D01*
X259200Y363460D01*
X258513Y363987D01*
X257542Y364389D01*
X256500Y364527D01*
X255458Y364389D01*
X254487Y363987D01*
X253653Y363347D01*
X253013Y362513D01*
X252611Y361542D01*
X252473Y360500D01*
X252611Y359458D01*
X253013Y358487D01*
X253362Y358032D01*
X253115Y357532D01*
X248074D01*
X247827Y358032D01*
X248176Y358487D01*
X248578Y359458D01*
X248715Y360500D01*
X248578Y361542D01*
X248176Y362513D01*
X247536Y363347D01*
X246702Y363987D01*
X245731Y364389D01*
X244689Y364527D01*
X243647Y364389D01*
X242676Y363987D01*
X241842Y363347D01*
X241202Y362513D01*
X240800Y361542D01*
X240662Y360500D01*
X240800Y359458D01*
X241202Y358487D01*
X241551Y358032D01*
X241304Y357532D01*
X236263D01*
X236016Y358032D01*
X236365Y358487D01*
X236767Y359458D01*
X236905Y360500D01*
X236767Y361542D01*
X236365Y362513D01*
X235725Y363347D01*
X234891Y363987D01*
X233920Y364389D01*
X232878Y364527D01*
X231836Y364389D01*
X230865Y363987D01*
X230031Y363347D01*
X229391Y362513D01*
X228989Y361542D01*
X228851Y360500D01*
X228989Y359458D01*
X229391Y358487D01*
X229740Y358032D01*
X229493Y357532D01*
X228209D01*
X225071Y360670D01*
X224956Y361542D01*
X224554Y362513D01*
X223914Y363347D01*
X223080Y363987D01*
X222109Y364389D01*
X221067Y364527D01*
X220025Y364389D01*
X219054Y363987D01*
X218220Y363347D01*
X217580Y362513D01*
X217178Y361542D01*
X217040Y360500D01*
X217178Y359458D01*
X217580Y358487D01*
X218220Y357653D01*
X219054Y357013D01*
X220025Y356611D01*
X221067Y356473D01*
X221326Y356508D01*
X225074Y352760D01*
X225074Y352760D01*
X225653Y352315D01*
X226328Y352036D01*
X227051Y351941D01*
X227051Y351941D01*
X258887D01*
X259611Y352036D01*
X260285Y352315D01*
X260864Y352760D01*
X264382Y356277D01*
X264826Y356856D01*
X265016Y357313D01*
X265515Y357213D01*
Y302969D01*
X255512Y292966D01*
X255086Y292910D01*
X254235Y292557D01*
X253504Y291996D01*
X252943Y291265D01*
X252590Y290414D01*
X252470Y289500D01*
X252590Y288586D01*
X252943Y287735D01*
X253504Y287004D01*
X254235Y286443D01*
X255086Y286090D01*
X256000Y285970D01*
X256914Y286090D01*
X257765Y286443D01*
X258496Y287004D01*
X259057Y287735D01*
X259410Y288586D01*
X259466Y289013D01*
X270288Y299834D01*
X270732Y300413D01*
X271011Y301087D01*
X271107Y301811D01*
Y357613D01*
X271158Y357653D01*
X271798Y358487D01*
X272200Y359458D01*
X272338Y360500D01*
X272200Y361542D01*
X271798Y362513D01*
X271449Y362968D01*
X271696Y363468D01*
X276737D01*
X276984Y362968D01*
X276635Y362513D01*
X276233Y361542D01*
X276096Y360500D01*
X276233Y359458D01*
X276635Y358487D01*
X277275Y357653D01*
X278109Y357013D01*
X279080Y356611D01*
X280122Y356473D01*
X280187Y356482D01*
X322204Y314464D01*
Y299643D01*
X321704Y299397D01*
X321295Y299711D01*
X320429Y300070D01*
X319919Y300137D01*
X310579Y309477D01*
X310000Y309921D01*
X309326Y310200D01*
X308602Y310296D01*
X288559D01*
Y311059D01*
X281441D01*
Y303941D01*
X288559D01*
Y304704D01*
X307444D01*
X315965Y296183D01*
X316033Y295673D01*
X316391Y294808D01*
X316962Y294064D01*
X317705Y293494D01*
X318571Y293135D01*
X319500Y293013D01*
X320429Y293135D01*
X321295Y293494D01*
X321704Y293808D01*
X322204Y293561D01*
Y287439D01*
X321704Y287192D01*
X321295Y287507D01*
X320429Y287865D01*
X319500Y287987D01*
X318571Y287865D01*
X317705Y287507D01*
X316962Y286936D01*
X316391Y286192D01*
X316033Y285327D01*
X315965Y284817D01*
X303944Y272796D01*
X288559D01*
Y273559D01*
X281441D01*
Y266441D01*
X288559D01*
Y267204D01*
X305102D01*
X305826Y267300D01*
X306500Y267579D01*
X307079Y268023D01*
X319919Y280863D01*
X320429Y280930D01*
X321295Y281289D01*
X321704Y281603D01*
X322204Y281357D01*
Y267606D01*
X321943Y267265D01*
X321590Y266414D01*
X321470Y265500D01*
X321590Y264586D01*
X321943Y263735D01*
X322504Y263004D01*
X323235Y262443D01*
X324086Y262090D01*
X325000Y261970D01*
X325914Y262090D01*
X326765Y262443D01*
X327496Y263004D01*
X328057Y263735D01*
X328410Y264586D01*
X328530Y265500D01*
X328410Y266414D01*
X328057Y267265D01*
X327796Y267606D01*
Y315622D01*
X327796Y315622D01*
X327700Y316346D01*
X327421Y317020D01*
X326977Y317599D01*
X284140Y360436D01*
X284149Y360500D01*
X284011Y361542D01*
X283609Y362513D01*
X283260Y362968D01*
X283507Y363468D01*
X288548D01*
X288795Y362968D01*
X288446Y362513D01*
X288044Y361542D01*
X287907Y360500D01*
X288044Y359458D01*
X288446Y358487D01*
X289086Y357653D01*
X289920Y357013D01*
X290891Y356611D01*
X291933Y356473D01*
X291998Y356482D01*
X332228Y316251D01*
Y271476D01*
X332324Y270752D01*
X332603Y270078D01*
X333047Y269499D01*
X347517Y255029D01*
X347513Y255000D01*
X347649Y253968D01*
X348047Y253007D01*
X348681Y252181D01*
X349507Y251547D01*
X350468Y251149D01*
X351500Y251013D01*
X352532Y251149D01*
X353493Y251547D01*
X354319Y252181D01*
X354953Y253007D01*
X355351Y253968D01*
X355487Y255000D01*
X355351Y256032D01*
X354953Y256993D01*
X354319Y257819D01*
X353493Y258453D01*
X352532Y258851D01*
X351500Y258987D01*
X351471Y258983D01*
X349406Y261048D01*
X349689Y261472D01*
X350468Y261149D01*
X351500Y261013D01*
X352532Y261149D01*
X353493Y261547D01*
X354319Y262181D01*
X354953Y263007D01*
X355351Y263968D01*
X355487Y265000D01*
X355351Y266032D01*
X354953Y266993D01*
X354319Y267819D01*
X353493Y268453D01*
X352532Y268851D01*
X351500Y268987D01*
X350468Y268851D01*
X349507Y268453D01*
X348681Y267819D01*
X348047Y266993D01*
X347649Y266032D01*
X347513Y265000D01*
X347649Y263968D01*
X347972Y263189D01*
X347548Y262906D01*
X337820Y272634D01*
Y317409D01*
X337820Y317409D01*
X337724Y318133D01*
X337445Y318807D01*
X337001Y319386D01*
X337001Y319386D01*
X295951Y360436D01*
X295960Y360500D01*
X295822Y361542D01*
X295420Y362513D01*
X295071Y362968D01*
X295318Y363468D01*
X300360D01*
X300606Y362968D01*
X300257Y362513D01*
X299855Y361542D01*
X299717Y360500D01*
X299855Y359458D01*
X300257Y358487D01*
X300897Y357653D01*
X301731Y357013D01*
X302702Y356611D01*
X303744Y356473D01*
X303809Y356482D01*
X346815Y313475D01*
X347394Y313031D01*
X348069Y312752D01*
X348263Y312726D01*
X348681Y312181D01*
X349507Y311547D01*
X350468Y311149D01*
X351500Y311013D01*
X352532Y311149D01*
X353493Y311547D01*
X354319Y312181D01*
X354953Y313007D01*
X355351Y313968D01*
X355487Y315000D01*
X355351Y316032D01*
X354953Y316993D01*
X354319Y317819D01*
X353493Y318453D01*
X352532Y318851D01*
X351500Y318987D01*
X350468Y318851D01*
X349675Y318523D01*
X307762Y360436D01*
X307771Y360500D01*
X307633Y361542D01*
X307231Y362513D01*
X306882Y362968D01*
X307129Y363468D01*
X312171D01*
X312417Y362968D01*
X312068Y362513D01*
X311666Y361542D01*
X311528Y360500D01*
X311666Y359458D01*
X312068Y358487D01*
X312708Y357653D01*
X313542Y357013D01*
X314513Y356611D01*
X315555Y356473D01*
X316597Y356611D01*
X317568Y357013D01*
X318402Y357653D01*
X319042Y358487D01*
X319444Y359458D01*
X319535Y360146D01*
X319599Y360219D01*
X320077Y360435D01*
X320538Y360245D01*
X321261Y360149D01*
X330445D01*
X331168Y360245D01*
X331843Y360524D01*
X332422Y360968D01*
X332443Y360989D01*
X332867Y360706D01*
X332840Y360642D01*
X332720Y359728D01*
X332840Y358815D01*
X333193Y357963D01*
X333754Y357232D01*
X334485Y356671D01*
X335336Y356318D01*
X335787Y356259D01*
X340728Y351318D01*
Y342976D01*
X340824Y342252D01*
X341103Y341578D01*
X341547Y340999D01*
X347517Y335029D01*
X347513Y335000D01*
X347649Y333968D01*
X348047Y333007D01*
X348681Y332181D01*
X349507Y331547D01*
X350468Y331149D01*
X351500Y331013D01*
X352532Y331149D01*
X353493Y331547D01*
X354319Y332181D01*
X354953Y333007D01*
X355351Y333968D01*
X355487Y335000D01*
X355351Y336032D01*
X354953Y336993D01*
X354319Y337819D01*
X353493Y338453D01*
X352532Y338851D01*
X351500Y338987D01*
X351471Y338983D01*
X349406Y341048D01*
X349689Y341472D01*
X350468Y341149D01*
X351500Y341013D01*
X352532Y341149D01*
X353493Y341547D01*
X354319Y342181D01*
X354953Y343007D01*
X355351Y343968D01*
X355487Y345000D01*
X355351Y346032D01*
X354953Y346993D01*
X354319Y347819D01*
X353493Y348453D01*
X352532Y348851D01*
X351500Y348987D01*
X350468Y348851D01*
X349507Y348453D01*
X348681Y347819D01*
X348047Y346993D01*
X347649Y346032D01*
X347513Y345000D01*
X347649Y343968D01*
X347972Y343189D01*
X347548Y342906D01*
X346320Y344134D01*
Y352476D01*
X346224Y353200D01*
X345945Y353874D01*
X345501Y354453D01*
X339713Y360241D01*
X339660Y360642D01*
X339307Y361493D01*
X339106Y361756D01*
X339327Y362204D01*
X348663D01*
X348681Y362181D01*
X349507Y361547D01*
X350468Y361149D01*
X351500Y361013D01*
X352532Y361149D01*
X353493Y361547D01*
X354319Y362181D01*
X354953Y363007D01*
X355351Y363968D01*
X355487Y365000D01*
X355351Y366032D01*
X354953Y366993D01*
X354319Y367819D01*
X353493Y368453D01*
X352532Y368851D01*
X351500Y368987D01*
X350468Y368851D01*
X349507Y368453D01*
X348681Y367819D01*
X348663Y367796D01*
X332500D01*
X332500Y367796D01*
X331776Y367700D01*
X331307Y367506D01*
X330863Y367803D01*
X330846Y367830D01*
X330896Y368216D01*
X330776Y369130D01*
X330423Y369982D01*
X329862Y370713D01*
X329131Y371274D01*
X328280Y371626D01*
X327366Y371747D01*
D02*
G37*
G36*
X173823D02*
X172909Y371626D01*
X172058Y371274D01*
X171327Y370713D01*
X170766Y369982D01*
X170413Y369130D01*
X170293Y368216D01*
X170413Y367303D01*
X170766Y366451D01*
X171327Y365720D01*
X172058Y365159D01*
X172909Y364807D01*
X173823Y364686D01*
X174736Y364807D01*
X175588Y365159D01*
X176319Y365720D01*
X176880Y366451D01*
X177233Y367303D01*
X177353Y368216D01*
X177233Y369130D01*
X176880Y369982D01*
X176319Y370713D01*
X175588Y371274D01*
X174736Y371626D01*
X173823Y371747D01*
D02*
G37*
G36*
X189626Y364492D02*
X181642D01*
Y356508D01*
X189626D01*
Y364492D01*
D02*
G37*
G36*
X191472Y418185D02*
X190389Y418043D01*
X189380Y417625D01*
X188513Y416959D01*
X187848Y416093D01*
X187430Y415083D01*
X187287Y414000D01*
X187430Y412917D01*
X187848Y411907D01*
X188513Y411040D01*
X188677Y410915D01*
Y378284D01*
X188772Y377560D01*
X189051Y376886D01*
X189496Y376307D01*
X205238Y360564D01*
X205229Y360500D01*
X205367Y359458D01*
X205769Y358487D01*
X206409Y357653D01*
X207243Y357013D01*
X208214Y356611D01*
X209256Y356473D01*
X210298Y356611D01*
X211269Y357013D01*
X212103Y357653D01*
X212743Y358487D01*
X213145Y359458D01*
X213282Y360500D01*
X213145Y361542D01*
X212743Y362513D01*
X212103Y363347D01*
X211269Y363987D01*
X210298Y364389D01*
X209256Y364527D01*
X209191Y364518D01*
X194268Y379441D01*
Y410915D01*
X194432Y411040D01*
X195097Y411907D01*
X195515Y412917D01*
X195658Y414000D01*
X195515Y415083D01*
X195097Y416093D01*
X194432Y416959D01*
X193565Y417625D01*
X192556Y418043D01*
X191472Y418185D01*
D02*
G37*
G36*
X432500Y359649D02*
X431458Y359511D01*
X430487Y359109D01*
X429653Y358469D01*
X429013Y357635D01*
X428611Y356664D01*
X428473Y355622D01*
X428611Y354580D01*
X429013Y353609D01*
X429653Y352775D01*
X430487Y352135D01*
X431458Y351733D01*
X432500Y351595D01*
X433542Y351733D01*
X434513Y352135D01*
X435347Y352775D01*
X435987Y353609D01*
X436389Y354580D01*
X436527Y355622D01*
X436389Y356664D01*
X435987Y357635D01*
X435347Y358469D01*
X434513Y359109D01*
X433542Y359511D01*
X432500Y359649D01*
D02*
G37*
G36*
X351500Y358987D02*
X350468Y358851D01*
X349507Y358453D01*
X348681Y357819D01*
X348047Y356993D01*
X347649Y356032D01*
X347513Y355000D01*
X347649Y353968D01*
X348047Y353007D01*
X348681Y352181D01*
X349507Y351547D01*
X350468Y351149D01*
X351500Y351013D01*
X352532Y351149D01*
X353493Y351547D01*
X354319Y352181D01*
X354953Y353007D01*
X355351Y353968D01*
X355487Y355000D01*
X355351Y356032D01*
X354953Y356993D01*
X354319Y357819D01*
X353493Y358453D01*
X352532Y358851D01*
X351500Y358987D01*
D02*
G37*
G36*
X393500Y353464D02*
X393086Y353410D01*
X392235Y353057D01*
X391504Y352496D01*
X390943Y351765D01*
X390590Y350914D01*
X390536Y350500D01*
X393500D01*
Y353464D01*
D02*
G37*
G36*
X528500Y413884D02*
X527365Y413735D01*
X526308Y413297D01*
X525400Y412600D01*
X524703Y411692D01*
X524265Y410635D01*
X524116Y409500D01*
X524265Y408365D01*
X524703Y407308D01*
X525400Y406400D01*
X525704Y406167D01*
Y359783D01*
X525494Y359755D01*
X524556Y359367D01*
X523751Y358749D01*
X523133Y357944D01*
X522745Y357006D01*
X522622Y356076D01*
X504330Y337784D01*
X470362D01*
Y338350D01*
X466325D01*
X466134Y338812D01*
X469774Y342453D01*
X505691D01*
X506415Y342548D01*
X507089Y342827D01*
X507668Y343271D01*
X514418Y350021D01*
X514418Y350021D01*
X514862Y350600D01*
X515141Y351274D01*
X515237Y351998D01*
X515237Y351998D01*
Y402283D01*
X518107Y405154D01*
X522847D01*
Y413846D01*
X514153D01*
Y409107D01*
X510464Y405418D01*
X510020Y404839D01*
X509741Y404165D01*
X509645Y403441D01*
Y359854D01*
X506914D01*
X499780Y366989D01*
X499201Y367433D01*
X498527Y367712D01*
X497803Y367807D01*
X469796D01*
Y388886D01*
X469909Y388999D01*
X470321Y389053D01*
X471307Y389461D01*
X472153Y390111D01*
X472802Y390957D01*
X473211Y391942D01*
X473350Y393000D01*
X473211Y394058D01*
X472802Y395043D01*
X472153Y395889D01*
X471307Y396539D01*
X470321Y396947D01*
X469264Y397086D01*
X468206Y396947D01*
X467221Y396539D01*
X466374Y395889D01*
X465725Y395043D01*
X465317Y394058D01*
X465178Y393000D01*
X465274Y392271D01*
X465023Y392021D01*
X464579Y391441D01*
X464300Y390767D01*
X464204Y390044D01*
Y366892D01*
X464063Y366707D01*
X463724Y365890D01*
X463609Y365012D01*
X463724Y364134D01*
X464063Y363316D01*
X464602Y362614D01*
X465304Y362075D01*
X466122Y361736D01*
X467000Y361621D01*
X467878Y361736D01*
X468696Y362075D01*
X468880Y362216D01*
X496645D01*
X502961Y355901D01*
Y352146D01*
X507982D01*
X508174Y351684D01*
X504533Y348044D01*
X468616D01*
X467892Y347948D01*
X467218Y347669D01*
X466639Y347225D01*
X459889Y340475D01*
X459445Y339896D01*
X459166Y339222D01*
X459071Y338498D01*
Y332455D01*
X458609Y332264D01*
X445085Y345788D01*
X444506Y346232D01*
X443831Y346511D01*
X443108Y346607D01*
X435387D01*
X435347Y346658D01*
X434513Y347298D01*
X433542Y347700D01*
X432500Y347838D01*
X431458Y347700D01*
X430487Y347298D01*
X429653Y346658D01*
X429013Y345824D01*
X428611Y344853D01*
X428473Y343811D01*
X428611Y342769D01*
X429013Y341798D01*
X429653Y340964D01*
X430487Y340324D01*
X431458Y339922D01*
X432500Y339785D01*
X433542Y339922D01*
X434513Y340324D01*
X435347Y340964D01*
X435387Y341016D01*
X441950D01*
X467756Y315209D01*
X467756Y315209D01*
X468335Y314765D01*
X469009Y314485D01*
X469733Y314390D01*
X474558D01*
X493762Y295186D01*
X493583Y294658D01*
X492917Y294570D01*
X491907Y294152D01*
X491041Y293487D01*
X490915Y293323D01*
X485102D01*
X444448Y333977D01*
X443869Y334421D01*
X443195Y334700D01*
X442471Y334796D01*
X435387D01*
X435347Y334847D01*
X434513Y335487D01*
X433542Y335889D01*
X432500Y336027D01*
X431458Y335889D01*
X430487Y335487D01*
X429653Y334847D01*
X429013Y334013D01*
X428611Y333042D01*
X428473Y332000D01*
X428611Y330958D01*
X429013Y329987D01*
X429653Y329153D01*
X430487Y328513D01*
X431458Y328111D01*
X432500Y327973D01*
X433542Y328111D01*
X434513Y328513D01*
X435347Y329153D01*
X435387Y329204D01*
X441313D01*
X481967Y288551D01*
X481967Y288551D01*
X482546Y288106D01*
X483220Y287827D01*
X483944Y287732D01*
X483944Y287732D01*
X490915D01*
X491041Y287568D01*
X491907Y286903D01*
X492917Y286485D01*
X494000Y286342D01*
X495083Y286485D01*
X496093Y286903D01*
X496959Y287568D01*
X497625Y288435D01*
X498043Y289444D01*
X498131Y290110D01*
X498658Y290290D01*
X499897Y289051D01*
X500476Y288607D01*
X501150Y288327D01*
X501874Y288232D01*
X515415D01*
X515541Y288068D01*
X516407Y287403D01*
X517417Y286985D01*
X518500Y286842D01*
X519583Y286985D01*
X520593Y287403D01*
X521459Y288068D01*
X522125Y288935D01*
X522543Y289944D01*
X522685Y291028D01*
X522543Y292111D01*
X522125Y293120D01*
X521459Y293987D01*
X520593Y294652D01*
X519583Y295070D01*
X518500Y295213D01*
X517417Y295070D01*
X516407Y294652D01*
X515541Y293987D01*
X515415Y293823D01*
X503032D01*
X477693Y319163D01*
X477113Y319607D01*
X476871Y319707D01*
X476971Y320207D01*
X484312D01*
X490314Y314205D01*
X490287Y314000D01*
X490430Y312917D01*
X490848Y311907D01*
X491513Y311040D01*
X492380Y310375D01*
X493389Y309957D01*
X494472Y309815D01*
X495556Y309957D01*
X496565Y310375D01*
X497432Y311040D01*
X498097Y311907D01*
X498515Y312917D01*
X498658Y314000D01*
X498515Y315083D01*
X498097Y316093D01*
X497432Y316960D01*
X496565Y317625D01*
X495556Y318043D01*
X494472Y318185D01*
X494268Y318158D01*
X487447Y324979D01*
X486868Y325424D01*
X486193Y325703D01*
X485470Y325798D01*
X471499D01*
X466134Y331164D01*
X466325Y331626D01*
X470362D01*
Y332193D01*
X505488D01*
X506212Y332288D01*
X506886Y332567D01*
X507465Y333011D01*
X526576Y352122D01*
X527506Y352245D01*
X528444Y352633D01*
X529249Y353251D01*
X529867Y354056D01*
X530255Y354994D01*
X530388Y356000D01*
X530327Y356459D01*
X530477Y356609D01*
X530477Y356609D01*
X530921Y357188D01*
X531200Y357862D01*
X531296Y358586D01*
X531296Y358586D01*
Y406167D01*
X531600Y406400D01*
X532297Y407308D01*
X532735Y408365D01*
X532884Y409500D01*
X532735Y410635D01*
X532297Y411692D01*
X531600Y412600D01*
X530692Y413297D01*
X529635Y413735D01*
X528500Y413884D01*
D02*
G37*
G36*
X351500Y328987D02*
X350468Y328851D01*
X349507Y328453D01*
X348681Y327819D01*
X348047Y326993D01*
X347649Y326032D01*
X347513Y325000D01*
X347649Y323968D01*
X348047Y323007D01*
X348681Y322181D01*
X349507Y321547D01*
X350468Y321149D01*
X351500Y321013D01*
X352532Y321149D01*
X353493Y321547D01*
X354319Y322181D01*
X354953Y323007D01*
X355351Y323968D01*
X355487Y325000D01*
X355351Y326032D01*
X354953Y326993D01*
X354319Y327819D01*
X353493Y328453D01*
X352532Y328851D01*
X351500Y328987D01*
D02*
G37*
G36*
X191847Y324847D02*
X188000D01*
Y321000D01*
X191847D01*
Y324847D01*
D02*
G37*
G36*
X187000D02*
X183153D01*
Y321000D01*
X187000D01*
Y324847D01*
D02*
G37*
G36*
X242500Y322318D02*
Y318500D01*
X246318D01*
X246235Y319135D01*
X245797Y320192D01*
X245100Y321100D01*
X244192Y321797D01*
X243135Y322235D01*
X242500Y322318D01*
D02*
G37*
G36*
X241500D02*
X240865Y322235D01*
X239808Y321797D01*
X238900Y321100D01*
X238203Y320192D01*
X237765Y319135D01*
X237682Y318500D01*
X241500D01*
Y322318D01*
D02*
G37*
G36*
X285500Y321024D02*
Y318000D01*
X288524D01*
X288467Y318429D01*
X288109Y319295D01*
X287538Y320038D01*
X286795Y320609D01*
X285929Y320967D01*
X285500Y321024D01*
D02*
G37*
G36*
X362500Y320964D02*
X362086Y320910D01*
X361235Y320557D01*
X360504Y319996D01*
X359943Y319265D01*
X359590Y318414D01*
X359536Y318000D01*
X362500D01*
Y320964D01*
D02*
G37*
G36*
X284500Y321024D02*
X284071Y320967D01*
X283205Y320609D01*
X282462Y320038D01*
X281891Y319295D01*
X281533Y318429D01*
X281476Y318000D01*
X284500D01*
Y321024D01*
D02*
G37*
G36*
X191847Y320000D02*
X188000D01*
Y316154D01*
X191847D01*
Y320000D01*
D02*
G37*
G36*
X382000Y318921D02*
Y315500D01*
X385421D01*
X385351Y316032D01*
X384953Y316993D01*
X384319Y317819D01*
X383493Y318453D01*
X382532Y318851D01*
X382000Y318921D01*
D02*
G37*
G36*
X557677Y318150D02*
X554028D01*
Y314500D01*
X557677D01*
Y318150D01*
D02*
G37*
G36*
X553028D02*
X549378D01*
Y314500D01*
X553028D01*
Y318150D01*
D02*
G37*
G36*
X362500Y317000D02*
X359536D01*
X359590Y316586D01*
X359943Y315735D01*
X360504Y315004D01*
X361235Y314443D01*
X362086Y314090D01*
X362500Y314036D01*
Y317000D01*
D02*
G37*
G36*
X288524D02*
X285500D01*
Y313976D01*
X285929Y314033D01*
X286795Y314391D01*
X287538Y314962D01*
X288109Y315705D01*
X288467Y316571D01*
X288524Y317000D01*
D02*
G37*
G36*
X284500D02*
X281476D01*
X281533Y316571D01*
X281891Y315705D01*
X282462Y314962D01*
X283205Y314391D01*
X284071Y314033D01*
X284500Y313976D01*
Y317000D01*
D02*
G37*
G36*
X241500Y317500D02*
X237682D01*
X237765Y316865D01*
X238203Y315808D01*
X238900Y314900D01*
X239808Y314203D01*
X240865Y313765D01*
X241500Y313682D01*
Y317500D01*
D02*
G37*
G36*
X236347Y322346D02*
X227654D01*
Y313653D01*
X236347D01*
Y322346D01*
D02*
G37*
G36*
X197445Y364527D02*
X196403Y364389D01*
X195432Y363987D01*
X194598Y363347D01*
X193958Y362513D01*
X193555Y361542D01*
X193418Y360500D01*
X193555Y359458D01*
X193958Y358487D01*
X194598Y357653D01*
X195432Y357013D01*
X196403Y356611D01*
X197445Y356473D01*
X197509Y356482D01*
X205204Y348787D01*
Y304000D01*
X205300Y303276D01*
X205579Y302602D01*
X206023Y302023D01*
X227237Y280810D01*
X227341Y280019D01*
X227719Y279106D01*
X228321Y278321D01*
X229106Y277719D01*
X230019Y277341D01*
X231000Y277212D01*
X231980Y277341D01*
X232894Y277719D01*
X233679Y278321D01*
X234281Y279106D01*
X234659Y280019D01*
X234788Y281000D01*
X234659Y281980D01*
X234281Y282894D01*
X233796Y283526D01*
Y295842D01*
X251620Y313666D01*
X252000Y313616D01*
X253135Y313765D01*
X254192Y314203D01*
X255100Y314900D01*
X255797Y315808D01*
X256235Y316865D01*
X256384Y318000D01*
X256235Y319135D01*
X255797Y320192D01*
X255100Y321100D01*
X254192Y321797D01*
X253135Y322235D01*
X252000Y322384D01*
X250865Y322235D01*
X249808Y321797D01*
X248900Y321100D01*
X248203Y320192D01*
X247765Y319135D01*
X247616Y318000D01*
X247666Y317620D01*
X246753Y316706D01*
X246274Y316861D01*
X246239Y316900D01*
X246318Y317500D01*
X242500D01*
Y313682D01*
X243100Y313761D01*
X243139Y313726D01*
X243294Y313247D01*
X229023Y298977D01*
X228579Y298398D01*
X228300Y297724D01*
X228204Y297000D01*
Y288402D01*
X227743Y288211D01*
X210796Y305158D01*
Y349945D01*
X210796Y349945D01*
X210700Y350668D01*
X210421Y351343D01*
X209977Y351922D01*
X209977Y351922D01*
X201463Y360436D01*
X201471Y360500D01*
X201334Y361542D01*
X200932Y362513D01*
X200292Y363347D01*
X199458Y363987D01*
X198487Y364389D01*
X197445Y364527D01*
D02*
G37*
G36*
X385421Y314500D02*
X382000D01*
Y311079D01*
X382532Y311149D01*
X383493Y311547D01*
X384319Y312181D01*
X384953Y313007D01*
X385351Y313968D01*
X385421Y314500D01*
D02*
G37*
G36*
X557677Y313500D02*
X554028D01*
Y309850D01*
X557677D01*
Y313500D01*
D02*
G37*
G36*
X553028D02*
X549378D01*
Y309850D01*
X553028D01*
Y313500D01*
D02*
G37*
G36*
X382000Y308921D02*
Y305500D01*
X385421D01*
X385351Y306032D01*
X384953Y306993D01*
X384319Y307819D01*
X383493Y308453D01*
X382532Y308851D01*
X382000Y308921D01*
D02*
G37*
G36*
X352000D02*
Y305500D01*
X355421D01*
X355351Y306032D01*
X354953Y306993D01*
X354319Y307819D01*
X353493Y308453D01*
X352532Y308851D01*
X352000Y308921D01*
D02*
G37*
G36*
X351000D02*
X350468Y308851D01*
X349507Y308453D01*
X348681Y307819D01*
X348047Y306993D01*
X347649Y306032D01*
X347579Y305500D01*
X351000D01*
Y308921D01*
D02*
G37*
G36*
X385421Y304500D02*
X382000D01*
Y301079D01*
X382532Y301149D01*
X383493Y301547D01*
X384319Y302181D01*
X384953Y303007D01*
X385351Y303968D01*
X385421Y304500D01*
D02*
G37*
G36*
X355421D02*
X352000D01*
Y301079D01*
X352532Y301149D01*
X353493Y301547D01*
X354319Y302181D01*
X354953Y303007D01*
X355351Y303968D01*
X355421Y304500D01*
D02*
G37*
G36*
X351000D02*
X347579D01*
X347649Y303968D01*
X348047Y303007D01*
X348681Y302181D01*
X349507Y301547D01*
X350468Y301149D01*
X351000Y301079D01*
Y304500D01*
D02*
G37*
G36*
X351500Y298987D02*
X350468Y298851D01*
X349507Y298453D01*
X348681Y297819D01*
X348047Y296993D01*
X347649Y296032D01*
X347513Y295000D01*
X347649Y293968D01*
X348047Y293007D01*
X348681Y292181D01*
X349507Y291547D01*
X350468Y291149D01*
X351500Y291013D01*
X352532Y291149D01*
X353493Y291547D01*
X354319Y292181D01*
X354953Y293007D01*
X355351Y293968D01*
X355487Y295000D01*
X355351Y296032D01*
X354953Y296993D01*
X354319Y297819D01*
X353493Y298453D01*
X352532Y298851D01*
X351500Y298987D01*
D02*
G37*
G36*
X418784Y297274D02*
X417870Y297154D01*
X417018Y296801D01*
X416287Y296240D01*
X415726Y295509D01*
X415374Y294658D01*
X415253Y293744D01*
X415374Y292831D01*
X415726Y291979D01*
X416287Y291248D01*
X417018Y290687D01*
X417870Y290334D01*
X418784Y290214D01*
X419697Y290334D01*
X420549Y290687D01*
X421280Y291248D01*
X421841Y291979D01*
X422193Y292831D01*
X422314Y293744D01*
X422193Y294658D01*
X421841Y295509D01*
X421280Y296240D01*
X420549Y296801D01*
X419697Y297154D01*
X418784Y297274D01*
D02*
G37*
G36*
X545000Y294741D02*
X543917Y294598D01*
X542907Y294180D01*
X542040Y293515D01*
X541375Y292648D01*
X540957Y291638D01*
X540815Y290555D01*
X540957Y289472D01*
X541375Y288462D01*
X542040Y287596D01*
X542907Y286930D01*
X543917Y286512D01*
X545000Y286370D01*
X546083Y286512D01*
X547093Y286930D01*
X547960Y287596D01*
X548625Y288462D01*
X549043Y289472D01*
X549185Y290555D01*
X549043Y291638D01*
X548625Y292648D01*
X547960Y293515D01*
X547093Y294180D01*
X546083Y294598D01*
X545000Y294741D01*
D02*
G37*
G36*
X427000Y285894D02*
Y282433D01*
X430461D01*
X430389Y282975D01*
X429987Y283946D01*
X429347Y284780D01*
X428513Y285420D01*
X427542Y285822D01*
X427000Y285894D01*
D02*
G37*
G36*
X426000D02*
X425458Y285822D01*
X424487Y285420D01*
X423653Y284780D01*
X423013Y283946D01*
X422611Y282975D01*
X422539Y282433D01*
X426000D01*
Y285894D01*
D02*
G37*
G36*
X351500Y288987D02*
X350468Y288851D01*
X349507Y288453D01*
X348681Y287819D01*
X348047Y286993D01*
X347649Y286032D01*
X347513Y285000D01*
X347649Y283968D01*
X348047Y283007D01*
X348681Y282181D01*
X349507Y281547D01*
X350468Y281149D01*
X351500Y281013D01*
X352532Y281149D01*
X353493Y281547D01*
X354319Y282181D01*
X354953Y283007D01*
X355351Y283968D01*
X355487Y285000D01*
X355351Y286032D01*
X354953Y286993D01*
X354319Y287819D01*
X353493Y288453D01*
X352532Y288851D01*
X351500Y288987D01*
D02*
G37*
G36*
X285500Y283524D02*
Y280500D01*
X288524D01*
X288467Y280929D01*
X288109Y281795D01*
X287538Y282538D01*
X286795Y283109D01*
X285929Y283467D01*
X285500Y283524D01*
D02*
G37*
G36*
X284500D02*
X284071Y283467D01*
X283205Y283109D01*
X282462Y282538D01*
X281891Y281795D01*
X281533Y280929D01*
X281476Y280500D01*
X284500D01*
Y283524D01*
D02*
G37*
G36*
X430461Y281433D02*
X427000D01*
Y277972D01*
X427542Y278044D01*
X428513Y278446D01*
X429347Y279086D01*
X429987Y279920D01*
X430389Y280891D01*
X430461Y281433D01*
D02*
G37*
G36*
X426000D02*
X422539D01*
X422611Y280891D01*
X423013Y279920D01*
X423653Y279086D01*
X424487Y278446D01*
X425458Y278044D01*
X426000Y277972D01*
Y281433D01*
D02*
G37*
G36*
X177500Y324884D02*
X176365Y324735D01*
X175308Y324297D01*
X174400Y323600D01*
X173703Y322692D01*
X173265Y321635D01*
X173116Y320500D01*
X173265Y319365D01*
X173703Y318308D01*
X174400Y317400D01*
X175308Y316703D01*
X176365Y316265D01*
X177014Y316180D01*
X180704Y312490D01*
Y283526D01*
X180219Y282894D01*
X179841Y281980D01*
X179712Y281000D01*
X179841Y280019D01*
X180219Y279106D01*
X180821Y278321D01*
X181606Y277719D01*
X182519Y277341D01*
X183500Y277212D01*
X184481Y277341D01*
X185394Y277719D01*
X186179Y278321D01*
X186781Y279106D01*
X187159Y280019D01*
X187288Y281000D01*
X187159Y281980D01*
X186781Y282894D01*
X186296Y283526D01*
Y313648D01*
X186200Y314371D01*
X185921Y315045D01*
X185477Y315624D01*
X185410Y315692D01*
X185601Y316154D01*
X187000D01*
Y320000D01*
X183153D01*
Y318601D01*
X182692Y318410D01*
X181735Y319367D01*
X181884Y320500D01*
X181735Y321635D01*
X181297Y322692D01*
X180600Y323600D01*
X179692Y324297D01*
X178635Y324735D01*
X177500Y324884D01*
D02*
G37*
G36*
X288524Y279500D02*
X285500D01*
Y276476D01*
X285929Y276533D01*
X286795Y276891D01*
X287538Y277462D01*
X288109Y278205D01*
X288467Y279071D01*
X288524Y279500D01*
D02*
G37*
G36*
X284500D02*
X281476D01*
X281533Y279071D01*
X281891Y278205D01*
X282462Y277462D01*
X283205Y276891D01*
X284071Y276533D01*
X284500Y276476D01*
Y279500D01*
D02*
G37*
G36*
X351500Y278987D02*
X350468Y278851D01*
X349507Y278453D01*
X348681Y277819D01*
X348047Y276993D01*
X347649Y276032D01*
X347513Y275000D01*
X347649Y273968D01*
X348047Y273007D01*
X348681Y272181D01*
X349507Y271547D01*
X350468Y271149D01*
X351500Y271013D01*
X352532Y271149D01*
X353493Y271547D01*
X354319Y272181D01*
X354953Y273007D01*
X355351Y273968D01*
X355487Y275000D01*
X355351Y276032D01*
X354953Y276993D01*
X354319Y277819D01*
X353493Y278453D01*
X352532Y278851D01*
X351500Y278987D01*
D02*
G37*
G36*
X231500Y270943D02*
Y267721D01*
X234722D01*
X234659Y268201D01*
X234281Y269115D01*
X233679Y269899D01*
X232894Y270501D01*
X231980Y270880D01*
X231500Y270943D01*
D02*
G37*
G36*
X184000D02*
Y267721D01*
X187223D01*
X187159Y268201D01*
X186781Y269115D01*
X186179Y269899D01*
X185394Y270501D01*
X184481Y270880D01*
X184000Y270943D01*
D02*
G37*
G36*
X230500D02*
X230019Y270880D01*
X229106Y270501D01*
X228321Y269899D01*
X227719Y269115D01*
X227341Y268201D01*
X227277Y267721D01*
X230500D01*
Y270943D01*
D02*
G37*
G36*
X183000D02*
X182519Y270880D01*
X181606Y270501D01*
X180821Y269899D01*
X180219Y269115D01*
X179841Y268201D01*
X179778Y267721D01*
X183000D01*
Y270943D01*
D02*
G37*
G36*
X234722Y266721D02*
X231500D01*
Y263498D01*
X231980Y263561D01*
X232894Y263940D01*
X233679Y264542D01*
X234281Y265326D01*
X234659Y266240D01*
X234722Y266721D01*
D02*
G37*
G36*
X187223D02*
X184000D01*
Y263498D01*
X184481Y263561D01*
X185394Y263940D01*
X186179Y264542D01*
X186781Y265326D01*
X187159Y266240D01*
X187223Y266721D01*
D02*
G37*
G36*
X230500D02*
X227277D01*
X227341Y266240D01*
X227719Y265326D01*
X228321Y264542D01*
X229106Y263940D01*
X230019Y263561D01*
X230500Y263498D01*
Y266721D01*
D02*
G37*
G36*
X183000D02*
X179778D01*
X179841Y266240D01*
X180219Y265326D01*
X180821Y264542D01*
X181606Y263940D01*
X182519Y263561D01*
X183000Y263498D01*
Y266721D01*
D02*
G37*
G36*
X381500Y248987D02*
X380468Y248851D01*
X379507Y248453D01*
X378681Y247819D01*
X378047Y246993D01*
X377649Y246032D01*
X377513Y245000D01*
X377649Y243968D01*
X378047Y243007D01*
X378681Y242181D01*
X379507Y241547D01*
X380468Y241149D01*
X381500Y241013D01*
X382532Y241149D01*
X383493Y241547D01*
X384319Y242181D01*
X384953Y243007D01*
X385351Y243968D01*
X385487Y245000D01*
X385351Y246032D01*
X384953Y246993D01*
X384319Y247819D01*
X383493Y248453D01*
X382532Y248851D01*
X381500Y248987D01*
D02*
G37*
G36*
X262567Y241461D02*
Y238000D01*
X266028D01*
X265956Y238542D01*
X265554Y239513D01*
X264914Y240347D01*
X264080Y240987D01*
X263109Y241389D01*
X262567Y241461D01*
D02*
G37*
G36*
X261567D02*
X261025Y241389D01*
X260054Y240987D01*
X259220Y240347D01*
X258580Y239513D01*
X258178Y238542D01*
X258106Y238000D01*
X261567D01*
Y241461D01*
D02*
G37*
G36*
X266028Y237000D02*
X262567D01*
Y233539D01*
X263109Y233611D01*
X264080Y234013D01*
X264914Y234653D01*
X265554Y235487D01*
X265956Y236458D01*
X266028Y237000D01*
D02*
G37*
G36*
X261567D02*
X258106D01*
X258178Y236458D01*
X258580Y235487D01*
X259220Y234653D01*
X260054Y234013D01*
X261025Y233611D01*
X261567Y233539D01*
Y237000D01*
D02*
G37*
G36*
X273878Y241527D02*
X272836Y241389D01*
X271865Y240987D01*
X271031Y240347D01*
X270391Y239513D01*
X269989Y238542D01*
X269851Y237500D01*
X269989Y236458D01*
X270391Y235487D01*
X271031Y234653D01*
X271865Y234013D01*
X272836Y233611D01*
X273878Y233473D01*
X274920Y233611D01*
X275891Y234013D01*
X276725Y234653D01*
X277365Y235487D01*
X277767Y236458D01*
X277905Y237500D01*
X277767Y238542D01*
X277365Y239513D01*
X276725Y240347D01*
X275891Y240987D01*
X274920Y241389D01*
X273878Y241527D01*
D02*
G37*
G36*
X471650Y236122D02*
X468000D01*
Y232472D01*
X471650D01*
Y236122D01*
D02*
G37*
G36*
X518000D02*
X514350D01*
Y232472D01*
X518000D01*
Y236122D01*
D02*
G37*
G36*
X467000D02*
X463350D01*
Y232472D01*
X467000D01*
Y236122D01*
D02*
G37*
G36*
X498150Y235622D02*
X494500D01*
Y231972D01*
X498150D01*
Y235622D01*
D02*
G37*
G36*
X493500D02*
X489850D01*
Y231972D01*
X493500D01*
Y235622D01*
D02*
G37*
G36*
X522650Y231472D02*
X519000D01*
Y227823D01*
X522650D01*
Y231472D01*
D02*
G37*
G36*
X518000D02*
X514350D01*
Y227823D01*
X518000D01*
Y231472D01*
D02*
G37*
G36*
X471650D02*
X468000D01*
Y227823D01*
X471650D01*
Y231472D01*
D02*
G37*
G36*
X467000D02*
X463350D01*
Y227823D01*
X467000D01*
Y231472D01*
D02*
G37*
G36*
X498150Y230972D02*
X494500D01*
Y227323D01*
X498150D01*
Y230972D01*
D02*
G37*
G36*
X493500D02*
X489850D01*
Y227323D01*
X493500D01*
Y230972D01*
D02*
G37*
G36*
X250256Y233314D02*
X249342Y233193D01*
X248491Y232841D01*
X247760Y232280D01*
X247199Y231549D01*
X246846Y230697D01*
X246726Y229784D01*
X246846Y228870D01*
X247199Y228018D01*
X247760Y227287D01*
X248491Y226726D01*
X249342Y226374D01*
X250256Y226253D01*
X251169Y226374D01*
X252021Y226726D01*
X252752Y227287D01*
X253313Y228018D01*
X253666Y228870D01*
X253786Y229784D01*
X253666Y230697D01*
X253313Y231549D01*
X252752Y232280D01*
X252021Y232841D01*
X251169Y233193D01*
X250256Y233314D01*
D02*
G37*
G36*
X174000Y234917D02*
X172260Y234746D01*
X170588Y234238D01*
X169046Y233414D01*
X167695Y232305D01*
X166586Y230954D01*
X165762Y229412D01*
X165254Y227740D01*
X165083Y226000D01*
X165254Y224260D01*
X165762Y222588D01*
X166586Y221046D01*
X167695Y219695D01*
X169046Y218586D01*
X170588Y217762D01*
X172260Y217254D01*
X174000Y217083D01*
X175740Y217254D01*
X177412Y217762D01*
X178954Y218586D01*
X180305Y219695D01*
X181414Y221046D01*
X182238Y222588D01*
X182746Y224260D01*
X182917Y226000D01*
X182746Y227740D01*
X182238Y229412D01*
X181414Y230954D01*
X180305Y232305D01*
X178954Y233414D01*
X177412Y234238D01*
X175740Y234746D01*
X174000Y234917D01*
D02*
G37*
G36*
X556500Y226417D02*
X554760Y226246D01*
X553088Y225738D01*
X551546Y224914D01*
X550195Y223805D01*
X549086Y222454D01*
X548262Y220912D01*
X547754Y219240D01*
X547583Y217500D01*
X547754Y215760D01*
X548262Y214088D01*
X549086Y212546D01*
X550195Y211195D01*
X551546Y210086D01*
X553088Y209262D01*
X554760Y208754D01*
X556500Y208583D01*
X558240Y208754D01*
X559912Y209262D01*
X561454Y210086D01*
X562805Y211195D01*
X563914Y212546D01*
X564738Y214088D01*
X565246Y215760D01*
X565417Y217500D01*
X565246Y219240D01*
X564738Y220912D01*
X563914Y222454D01*
X562805Y223805D01*
X561454Y224914D01*
X559912Y225738D01*
X558240Y226246D01*
X556500Y226417D01*
D02*
G37*
G36*
X418784Y214597D02*
X417870Y214477D01*
X417018Y214124D01*
X416287Y213563D01*
X415726Y212832D01*
X415374Y211981D01*
X415253Y211067D01*
X415374Y210153D01*
X415726Y209302D01*
X416287Y208571D01*
X417018Y208010D01*
X417870Y207657D01*
X418784Y207537D01*
X419697Y207657D01*
X420549Y208010D01*
X421280Y208571D01*
X421841Y209302D01*
X422193Y210153D01*
X422314Y211067D01*
X422193Y211981D01*
X421841Y212832D01*
X421280Y213563D01*
X420549Y214124D01*
X419697Y214477D01*
X418784Y214597D01*
D02*
G37*
%LPD*%
G36*
X428508Y392360D02*
Y391017D01*
X411124Y373632D01*
X410662Y373824D01*
Y375167D01*
X428046Y392551D01*
X428508Y392360D01*
D02*
G37*
G36*
X378681Y342181D02*
X379507Y341547D01*
X380468Y341149D01*
X381500Y341013D01*
X382532Y341149D01*
X383493Y341547D01*
X383996Y341933D01*
X395676D01*
X395868Y341471D01*
X392193Y337796D01*
X384337D01*
X384319Y337819D01*
X383493Y338453D01*
X382532Y338851D01*
X381500Y338987D01*
X380468Y338851D01*
X379507Y338453D01*
X378681Y337819D01*
X378592Y337704D01*
X378119Y337865D01*
Y342135D01*
X378592Y342296D01*
X378681Y342181D01*
D02*
G37*
G36*
Y332181D02*
X379507Y331547D01*
X380468Y331149D01*
X381500Y331013D01*
X382532Y331149D01*
X383493Y331547D01*
X384319Y332181D01*
X384337Y332204D01*
X392373D01*
X392565Y331743D01*
X388618Y327796D01*
X384337D01*
X384319Y327819D01*
X383493Y328453D01*
X382532Y328851D01*
X381500Y328987D01*
X380468Y328851D01*
X379507Y328453D01*
X378681Y327819D01*
X378592Y327704D01*
X378119Y327865D01*
Y332135D01*
X378592Y332296D01*
X378681Y332181D01*
D02*
G37*
G36*
X377972Y366811D02*
X377649Y366032D01*
X377513Y365000D01*
X377545Y364755D01*
X373347Y360557D01*
X372902Y359978D01*
X372623Y359303D01*
X372528Y358580D01*
Y283447D01*
X372296Y283265D01*
X371796Y283497D01*
Y361342D01*
X377548Y367094D01*
X377972Y366811D01*
D02*
G37*
G36*
X422482Y258376D02*
X422473Y258311D01*
X422611Y257269D01*
X423013Y256298D01*
X423362Y255843D01*
X423115Y255343D01*
X414111D01*
X393925Y275529D01*
X393910Y275642D01*
X393557Y276493D01*
X393356Y276756D01*
X393577Y277204D01*
X403653D01*
X422482Y258376D01*
D02*
G37*
G36*
X339783Y237990D02*
X339591Y237528D01*
X332552D01*
X332002Y237755D01*
X331279Y237851D01*
X307127D01*
X307127Y237851D01*
X306404Y237755D01*
X305730Y237476D01*
X305151Y237032D01*
X305151Y237032D01*
X302651Y234532D01*
X301492D01*
Y237539D01*
X304889Y240936D01*
X336836D01*
X339783Y237990D01*
D02*
G37*
D15*
X157500Y438500D02*
X568500D01*
Y204000D02*
Y438500D01*
X157500Y204000D02*
X568500D01*
X157500D02*
Y438500D01*
D16*
X526500Y356000D02*
D03*
D17*
X506815D02*
D03*
D34*
X467000Y365012D02*
D03*
D35*
Y334988D02*
D03*
D38*
X333295Y391142D02*
D03*
X307705D02*
D03*
X333295Y408858D02*
D03*
D39*
X307705D02*
D03*
D40*
X512441Y403441D02*
X518500Y409500D01*
X512441Y351998D02*
Y403441D01*
X505691Y345248D02*
X512441Y351998D01*
X479500Y393000D02*
X479686D01*
X468616Y345248D02*
X505691D01*
X461866Y331478D02*
X470341Y323003D01*
X432500Y343811D02*
X443108D01*
X470341Y323003D02*
X485470D01*
X443108Y343811D02*
X469733Y317186D01*
X475716D01*
X501874Y291028D01*
X485470Y323003D02*
X494472Y314000D01*
X461866Y331478D02*
Y338498D01*
X468616Y345248D01*
X467000Y365012D02*
X497803D01*
X506815Y356000D01*
X505488Y334988D02*
X526500Y356000D01*
X467000Y334988D02*
X505488D01*
X528500Y358586D02*
Y409500D01*
X526500Y356586D02*
X528500Y358586D01*
X526500Y356000D02*
Y356586D01*
X470055Y412681D02*
X489736Y393000D01*
X403993Y412681D02*
X470055D01*
X398780Y408000D02*
X399312D01*
X442400Y408138D02*
X445488Y405050D01*
Y380421D02*
Y405050D01*
X403323Y378207D02*
X433253Y408138D01*
X399312Y408000D02*
X403993Y412681D01*
X433253Y408138D02*
X442400D01*
X467000Y365012D02*
Y390044D01*
X469264Y392307D01*
Y393000D01*
X351500Y305000D02*
Y305606D01*
X363000Y317106D01*
Y317500D01*
X342450Y239276D02*
X353871D01*
X373543Y252523D02*
Y280397D01*
X375323Y282177D01*
Y358580D01*
X353871Y239276D02*
X369000Y254404D01*
Y362500D02*
X381500Y375000D01*
Y364756D02*
Y365000D01*
X369000Y254404D02*
Y362500D01*
X355753Y234732D02*
X373543Y252523D01*
X375323Y358580D02*
X381500Y364756D01*
X303744Y360500D02*
X348792Y315452D01*
X250528Y414000D02*
X302563D01*
X307705Y408858D01*
X191472Y378284D02*
Y414000D01*
Y378284D02*
X209256Y360500D01*
X183500Y281000D02*
Y313648D01*
X177500Y319648D02*
Y320500D01*
Y319648D02*
X183500Y313648D01*
X231000Y281000D02*
Y297000D01*
X252000Y318000D01*
X426500Y222878D02*
X432264Y228642D01*
X291673Y231736D02*
X303808D01*
X331602Y234732D02*
X355753D01*
X303808Y231736D02*
X307127Y235055D01*
X337994Y243731D02*
X342450Y239276D01*
X285689Y237500D02*
X285909D01*
X307127Y235055D02*
X331279D01*
X303731Y243731D02*
X337994D01*
X285909Y237500D02*
X291673Y231736D01*
X331279Y235055D02*
X331602Y234732D01*
X297500Y237500D02*
X303731Y243731D01*
X325000Y265500D02*
Y315622D01*
X232723Y266844D02*
X262067Y237500D01*
X231377Y266844D02*
X232723D01*
X231000Y267220D02*
X231377Y266844D01*
X381500Y305000D02*
Y315000D01*
X262405Y362746D02*
X265924Y366264D01*
X268311Y301811D02*
Y360500D01*
X265924Y366264D02*
X317943D01*
X256000Y289500D02*
X268311Y301811D01*
X258887Y354736D02*
X262405Y358254D01*
Y362746D01*
X227051Y354736D02*
X258887D01*
X280122Y360500D02*
X325000Y315622D01*
X351500Y255000D02*
Y255000D01*
X335024Y271476D02*
Y317409D01*
Y271476D02*
X351500Y255000D01*
X291933Y360500D02*
X335024Y317409D01*
X390500Y274728D02*
X390772D01*
X382139Y275000D02*
X387139Y280000D01*
X404811D02*
X426500Y258311D01*
X387139Y280000D02*
X404811D01*
X390772Y274728D02*
X412953Y252547D01*
X428604D01*
X432264Y228642D02*
Y248887D01*
X381500Y275000D02*
X382139D01*
X428604Y252547D02*
X432264Y248887D01*
X381500Y265000D02*
X400000Y246500D01*
X426500D01*
X411622Y285000D02*
X426500Y270122D01*
X381500Y285000D02*
X411622D01*
X351500Y304361D02*
Y305000D01*
X381500D02*
X400072D01*
X398780Y354780D02*
Y408000D01*
X394000Y350000D02*
X398780Y354780D01*
X396654Y344728D02*
X403323Y351398D01*
X381772Y344728D02*
X396654D01*
X381500Y345000D02*
X381772Y344728D01*
X403323Y351398D02*
Y378207D01*
X381500Y335000D02*
X393350D01*
X407866Y349516D02*
Y376325D01*
X412409Y347634D02*
Y370965D01*
X381500Y325000D02*
X389776D01*
X416953Y324186D02*
X456033Y285106D01*
X416953Y343032D02*
X417681Y343760D01*
X389776Y325000D02*
X412409Y347634D01*
X393350Y335000D02*
X407866Y349516D01*
Y376325D02*
X428360Y396819D01*
X412409Y370965D02*
X432500Y391055D01*
X417681Y343760D02*
Y363000D01*
X416953Y324186D02*
Y343032D01*
X332500Y365000D02*
X351500D01*
X330445Y362945D02*
X332500Y365000D01*
X321261Y362945D02*
X330445D01*
X336250Y359728D02*
X336272D01*
X343524Y352476D01*
Y342976D02*
Y352476D01*
Y342976D02*
X351500Y335000D01*
X317943Y366264D02*
X321261Y362945D01*
X348792Y315452D02*
X351048D01*
X351500Y315000D01*
X279669Y298482D02*
X285000Y293151D01*
X279669Y298482D02*
Y311743D01*
X285000Y280000D02*
Y293151D01*
X279669Y311743D02*
X285000Y317074D01*
Y317500D01*
X529191Y231500D02*
X545000D01*
X475585Y285106D02*
X529191Y231500D01*
X456033Y285106D02*
X475585D01*
X398421Y408000D02*
X398780D01*
X392893Y413528D02*
X398421Y408000D01*
X362968Y413528D02*
X392893D01*
X358299Y408858D02*
X362968Y413528D01*
X351500Y375000D02*
X384500Y408000D01*
X385000D01*
X333295Y391142D02*
X341017Y383420D01*
X343080D02*
X351500Y375000D01*
X341017Y383420D02*
X343080D01*
X400072Y305000D02*
X416600Y288473D01*
X446545Y252928D02*
Y261889D01*
X426500Y281933D02*
X446545Y261889D01*
X419960Y288473D02*
X426500Y281933D01*
X501874Y291028D02*
X518500D01*
X432500Y367433D02*
X445488Y380421D01*
X428360Y396819D02*
X436640D01*
X438264Y385228D02*
Y395195D01*
X432500Y379465D02*
X438264Y385228D01*
X432500Y379244D02*
Y379465D01*
X436640Y396819D02*
X438264Y395195D01*
X221067Y360500D02*
X221287D01*
X227051Y354736D01*
X285000Y307500D02*
X308602D01*
X319500Y296602D01*
X307705Y408858D02*
X333295D01*
X307705Y391142D02*
X333295D01*
Y408858D02*
X358299D01*
X307023Y391142D02*
X307705D01*
X302665Y395500D02*
X307023Y391142D01*
X292000Y395500D02*
X302665D01*
X483944Y290528D02*
X494000D01*
X442471Y332000D02*
X483944Y290528D01*
X432500Y332000D02*
X442471D01*
X438806Y319722D02*
X467500Y291028D01*
X432967Y319722D02*
X438806D01*
X432500Y320189D02*
X432967Y319722D01*
X494000Y231472D02*
X494250Y231722D01*
X518250D01*
X518500Y231972D01*
X467500D02*
X467750Y231722D01*
X493750D01*
X494000Y231472D01*
X446545Y252928D02*
X467500Y231972D01*
X416600Y288473D02*
X419960D01*
X305102Y270000D02*
X319500Y284398D01*
X285000Y270000D02*
X305102D01*
X243779Y280000D02*
X285000D01*
X231000Y267220D02*
X243779Y280000D01*
X208000Y304000D02*
Y349945D01*
X197445Y360500D02*
X208000Y349945D01*
Y304000D02*
X231000Y281000D01*
X183500Y267220D02*
X231000D01*
X182967D02*
X183500D01*
X182967Y281000D02*
X183500D01*
D41*
X553527Y314000D02*
D03*
X292000Y395500D02*
D03*
X250528Y414000D02*
D03*
D42*
X494472Y314000D02*
D03*
X518500Y291028D02*
D03*
X232945Y395500D02*
D03*
X191472Y414000D02*
D03*
X545000Y290555D02*
D03*
X467500Y291028D02*
D03*
X494000Y290528D02*
D03*
D43*
X518500Y231972D02*
D03*
X545000Y231500D02*
D03*
X467500Y231972D02*
D03*
X494000Y231472D02*
D03*
D44*
X232000Y318000D02*
D03*
X187500Y320500D02*
D03*
X518500Y409500D02*
D03*
D45*
X242000Y318000D02*
D03*
X252000D02*
D03*
X177500Y320500D02*
D03*
X528500Y409500D02*
D03*
D46*
X426500Y258311D02*
D03*
Y234689D02*
D03*
Y246500D02*
D03*
Y270122D02*
D03*
Y281933D02*
D03*
X262067Y237500D02*
D03*
X273878D02*
D03*
X285689D02*
D03*
X315555Y360500D02*
D03*
X303744D02*
D03*
X280122D02*
D03*
X256500D02*
D03*
X244689D02*
D03*
X221067D02*
D03*
X197445D02*
D03*
X209256D02*
D03*
X232878D02*
D03*
X268311D02*
D03*
X291933D02*
D03*
X432500Y343811D02*
D03*
Y367433D02*
D03*
Y379244D02*
D03*
Y355622D02*
D03*
Y332000D02*
D03*
Y320189D02*
D03*
D47*
X418784Y211067D02*
D03*
Y293744D02*
D03*
X250256Y229784D02*
D03*
X309311D02*
D03*
X173823Y368216D02*
D03*
X327366D02*
D03*
X440216Y308378D02*
D03*
Y402866D02*
D03*
X363000Y317500D02*
D03*
X325000Y265500D02*
D03*
X256000Y289500D02*
D03*
X390500Y274728D02*
D03*
X394000Y350000D02*
D03*
X417681Y363000D02*
D03*
X336250Y359728D02*
D03*
D48*
X426500Y222878D02*
D03*
X432500Y391055D02*
D03*
D49*
X297500Y237500D02*
D03*
X185634Y360500D02*
D03*
D50*
X174000Y226000D02*
D03*
X556500Y217500D02*
D03*
X551500Y425500D02*
D03*
X172500Y422500D02*
D03*
D51*
X385000Y408000D02*
D03*
X398780D02*
D03*
X231000Y267220D02*
D03*
Y281000D02*
D03*
X183500Y267220D02*
D03*
Y281000D02*
D03*
D52*
X319500Y284398D02*
D03*
Y296602D02*
D03*
D53*
X285000Y307500D02*
D03*
Y270000D02*
D03*
D54*
Y317500D02*
D03*
Y280000D02*
D03*
D55*
X381500Y245000D02*
D03*
Y255000D02*
D03*
Y265000D02*
D03*
Y275000D02*
D03*
Y285000D02*
D03*
Y295000D02*
D03*
Y305000D02*
D03*
Y315000D02*
D03*
Y325000D02*
D03*
Y335000D02*
D03*
Y345000D02*
D03*
Y355000D02*
D03*
Y365000D02*
D03*
Y375000D02*
D03*
X351500Y245000D02*
D03*
Y255000D02*
D03*
Y265000D02*
D03*
Y275000D02*
D03*
Y285000D02*
D03*
Y295000D02*
D03*
Y305000D02*
D03*
Y315000D02*
D03*
Y325000D02*
D03*
Y335000D02*
D03*
Y345000D02*
D03*
Y355000D02*
D03*
Y365000D02*
D03*
D56*
Y375000D02*
D03*
D57*
X469264Y393000D02*
D03*
X479500D02*
D03*
D58*
X489736D02*
D03*
M02*
